<?xml version="1.0"?>
<svg xmlns="http://www.w3.org/2000/svg" width="1920" height="1080" viewBox="-960 -540 1920 1080">
    <path d="M-274.29,454.17L-274.29,193.83L-70.76,31.52L183.05,89.45L296,324L183.05,558.55L-70.76,616.48" fill="none" stroke="#000000"/>
    <path d="M-575.97,43.59C-576.75,43.05 -576.99,42.30 -576.67,41.37L-572.93,24.87C-572.93,24.48 -572.72,24.29 -572.29,24.29C-571.86,24.29 -571.60,24.48 -571.53,24.87C-568.64,38.13 -563.10,44.76 -554.91,44.76C-551.09,44.76 -547.99,43.42 -545.61,40.72C-543.23,38.03 -542.04,34.47 -542.04,30.02C-542.04,26.28 -543.11,23.04 -545.26,20.31C-547.40,17.58 -550.51,14.65 -554.56,11.53C-557.53,9.27 -559.87,7.36 -561.58,5.80C-563.30,4.24 -564.74,2.41 -565.91,0.30C-567.08,-1.80 -567.67,-4.14 -567.67,-6.72C-567.67,-7.81 -567.55,-8.94 -567.31,-10.11C-566.07,-15.96 -562.97,-20.45 -558.01,-23.57C-553.06,-26.69 -547.46,-28.25 -541.22,-28.25C-536.62,-28.25 -532.02,-27.31 -527.42,-25.44C-526.33,-24.89 -525.90,-24.23 -526.13,-23.45L-527.89,-8.24C-527.96,-8.01 -528.18,-7.89 -528.53,-7.89C-528.88,-7.89 -529.09,-8.01 -529.17,-8.24C-530.42,-13.70 -532.41,-17.99 -535.14,-21.11C-537.87,-24.23 -540.95,-25.79 -544.38,-25.79C-547.03,-25.79 -549.22,-25.07 -550.93,-23.63C-552.65,-22.18 -553.90,-20.47 -554.68,-18.48C-555.46,-16.49 -555.85,-14.56 -555.85,-12.69C-555.85,-10.35 -555.30,-8.24 -554.21,-6.37C-553.12,-4.50 -551.83,-2.88 -550.35,-1.51C-548.87,-0.15 -546.64,1.71 -543.68,4.05C-539.08,7.63 -535.57,10.91 -533.15,13.87C-530.73,16.84 -529.52,20.35 -529.52,24.40C-529.52,25.73 -529.60,26.74 -529.76,27.45C-530.85,33.37 -533.85,38.21 -538.77,41.95C-543.68,45.70 -550.12,47.57 -558.07,47.57C-564.39,47.57 -570.36,46.24 -575.97,43.59ZM-483.02,3.34C-480.95,5.45 -479.92,8.49 -479.92,12.47C-479.92,13.80 -480.03,15.16 -480.27,16.56C-481.05,21.79 -482.86,26.68 -485.71,31.25C-488.55,35.81 -492.02,39.46 -496.12,42.19C-500.21,44.92 -504.37,46.28 -508.58,46.28C-509.83,46.28 -511.39,46.20 -513.26,46.05L-517.00,66.99C-517.32,68.86 -517.47,69.99 -517.47,70.38C-517.47,71.55 -517.20,72.39 -516.65,72.90C-516.11,73.41 -515.21,73.66 -513.96,73.66C-513.57,73.66 -512.75,73.58 -511.51,73.43C-511.19,73.43 -510.98,73.62 -510.86,74.01C-510.74,74.40 -510.84,74.64 -511.15,74.71L-533.38,78.34C-533.62,78.42 -533.79,78.22 -533.91,77.76C-534.03,77.29 -533.93,77.01 -533.62,76.94C-532.06,76.55 -530.93,76.10 -530.23,75.59C-529.52,75.08 -528.98,74.28 -528.59,73.19C-528.20,72.10 -527.77,70.31 -527.30,67.81L-517.24,11.77C-518.88,12.70 -520.87,14.03 -523.21,15.75C-523.28,15.82 -523.40,15.86 -523.56,15.86C-523.87,15.86 -524.10,15.71 -524.26,15.39C-524.41,15.08 -524.34,14.81 -524.02,14.58C-520.90,12.08 -518.53,10.29 -516.89,9.19L-515.37,1.00C-515.37,0.85 -514.70,0.38 -513.38,-0.40C-511.19,-1.73 -509.36,-2.97 -507.88,-4.14C-506.40,-5.31 -505.46,-6.64 -505.07,-8.12C-504.99,-8.43 -504.74,-8.55 -504.31,-8.47C-503.88,-8.40 -503.71,-8.20 -503.78,-7.89L-505.77,3.23C-501.09,1.20 -496.57,0.18 -492.20,0.18C-488.14,0.18 -485.08,1.24 -483.02,3.34ZM-490.56,17.27C-490.56,13.91 -491.32,11.18 -492.84,9.08C-494.36,6.97 -496.84,5.92 -500.27,5.92C-502.38,5.92 -504.41,6.19 -506.36,6.74L-512.44,41.13C-509.87,42.23 -507.14,42.77 -504.25,42.77C-500.51,42.77 -497.54,40.76 -495.36,36.75C-493.18,32.73 -491.65,27.29 -490.80,20.43C-490.64,19.02 -490.56,17.97 -490.56,17.27ZM-439.67,1.00C-438.03,2.02 -437.21,3.42 -437.21,5.22C-437.21,8.73 -439.80,12.02 -444.99,15.10C-450.18,18.18 -456.44,20.43 -463.77,21.83C-464.00,23.55 -464.12,25.22 -464.12,26.86C-464.12,31.54 -463.15,35.30 -461.20,38.15C-459.25,41.00 -456.36,42.42 -452.54,42.42C-450.90,42.42 -449.12,42.13 -447.21,41.54C-445.30,40.96 -443.57,40.04 -442.01,38.79L-441.89,38.79C-441.66,38.79 -441.44,38.91 -441.25,39.15C-441.05,39.38 -441.03,39.57 -441.19,39.73C-444.00,42.46 -446.96,44.45 -450.08,45.70C-453.20,46.95 -456.32,47.57 -459.44,47.57C-464.82,47.57 -468.86,45.93 -471.55,42.66C-474.24,39.38 -475.59,35.25 -475.59,30.25C-475.59,28.54 -475.39,26.63 -475.00,24.52C-474.22,20.31 -472.49,16.29 -469.79,12.47C-467.10,8.65 -463.73,5.53 -459.67,3.11C-455.62,0.69 -451.25,-0.52 -446.57,-0.52C-443.61,-0.52 -441.31,-0.01 -439.67,1.00ZM-448.91,6.85C-448.91,5.53 -449.24,4.49 -449.90,3.75C-450.57,3.01 -451.48,2.64 -452.65,2.64C-455.15,2.64 -457.35,4.24 -459.26,7.44C-461.18,10.64 -462.60,14.81 -463.54,19.96C-454.57,17.62 -449.73,13.72 -449.03,8.26C-448.95,7.95 -448.91,7.48 -448.91,6.85ZM-429.72,42.36C-432.30,38.81 -433.58,34.35 -433.58,28.97C-433.58,27.02 -433.39,24.87 -433.00,22.53C-432.22,18.01 -430.44,13.99 -427.67,10.48C-424.91,6.97 -421.65,4.26 -417.91,2.35C-414.16,0.44 -410.46,-0.52 -406.79,-0.52C-403.90,-0.52 -401.35,0.11 -399.13,1.35C-396.90,2.60 -395.79,4.40 -395.79,6.74C-395.79,8.53 -396.32,9.95 -397.37,11.01C-398.42,12.06 -399.89,12.59 -401.76,12.59C-403.63,12.59 -405.00,12.10 -405.85,11.12C-406.71,10.15 -407.30,8.88 -407.61,7.32C-408.00,5.84 -408.49,4.71 -409.07,3.93C-409.66,3.15 -410.61,2.76 -411.94,2.76C-414.28,2.76 -416.35,4.18 -418.14,7.03C-419.93,9.88 -421.22,13.68 -422.00,18.44C-422.47,21.01 -422.70,23.47 -422.70,25.81C-422.70,30.72 -421.69,34.64 -419.66,37.57C-417.63,40.49 -414.59,41.95 -410.53,41.95C-408.97,41.95 -407.18,41.58 -405.15,40.84C-403.12,40.10 -401.49,39.26 -400.24,38.33L-400.12,38.33C-399.89,38.33 -399.65,38.44 -399.42,38.68C-399.19,38.91 -399.15,39.15 -399.30,39.38C-402.11,42.11 -405.11,44.18 -408.31,45.58C-411.51,46.98 -414.63,47.69 -417.67,47.69C-423.13,47.69 -427.15,45.91 -429.72,42.36ZM-380.41,-14.03C-381.62,-15.24 -382.22,-16.90 -382.22,-19.00C-382.22,-20.88 -381.62,-22.40 -380.41,-23.57C-379.20,-24.74 -377.58,-25.32 -375.55,-25.32C-373.52,-25.32 -371.94,-24.74 -370.81,-23.57C-369.68,-22.40 -369.12,-20.88 -369.12,-19.00C-369.12,-16.82 -369.68,-15.14 -370.81,-13.97C-371.94,-12.80 -373.52,-12.22 -375.55,-12.22C-377.58,-12.22 -379.20,-12.82 -380.41,-14.03ZM-389.01,40.67C-389.01,39.50 -388.81,37.86 -388.42,35.75L-383.62,11.42C-383.39,10.32 -383.27,9.43 -383.27,8.73C-383.27,7.71 -383.47,6.95 -383.86,6.44C-384.25,5.94 -384.76,5.68 -385.38,5.68C-387.02,5.68 -389.24,7.24 -392.05,10.36C-392.13,10.44 -392.24,10.48 -392.40,10.48C-392.71,10.48 -392.95,10.34 -393.10,10.07C-393.26,9.80 -393.26,9.54 -393.10,9.31C-390.29,6.03 -387.76,3.66 -385.50,2.17C-383.23,0.69 -381.01,-0.05 -378.83,-0.05C-375.08,-0.05 -373.21,1.98 -373.21,6.03C-373.21,7.36 -373.37,8.69 -373.68,10.01L-378.59,35.75C-378.75,36.45 -378.83,37.35 -378.83,38.44C-378.83,40.32 -378.24,41.25 -377.07,41.25C-376.29,41.25 -375.41,40.90 -374.44,40.20C-373.46,39.50 -372.28,38.48 -370.87,37.16C-370.72,37.00 -370.56,36.92 -370.40,36.92C-370.17,36.92 -369.97,37.06 -369.82,37.33C-369.66,37.60 -369.70,37.86 -369.94,38.09C-372.59,41.21 -374.95,43.51 -377.01,45.00C-379.08,46.48 -381.21,47.22 -383.39,47.22C-387.13,47.22 -389.01,45.03 -389.01,40.67ZM-317.99,37.04C-317.75,37.04 -317.56,37.18 -317.40,37.45C-317.25,37.72 -317.25,37.94 -317.40,38.09C-322.39,44.18 -326.76,47.22 -330.51,47.22C-332.53,47.22 -334.02,46.65 -334.95,45.52C-335.89,44.39 -336.36,42.62 -336.36,40.20C-336.36,38.87 -336.24,37.39 -336.01,35.75L-334.60,27.80C-337.57,34.04 -341.09,38.91 -345.19,42.42C-349.28,45.93 -353.28,47.69 -357.18,47.69C-359.60,47.69 -361.51,46.95 -362.92,45.46C-364.32,43.98 -365.02,41.76 -365.02,38.79C-365.02,33.57 -363.29,27.85 -359.81,21.65C-356.34,15.45 -352.05,10.21 -346.94,5.92C-341.84,1.63 -337.02,-0.52 -332.50,-0.52C-331.09,-0.52 -329.63,-0.26 -328.11,0.24C-326.59,0.75 -325.28,1.51 -324.19,2.52C-322.71,1.43 -321.50,0.11 -320.56,-1.45C-320.41,-1.61 -320.25,-1.69 -320.09,-1.69C-319.86,-1.69 -319.63,-1.61 -319.39,-1.45C-319.16,-1.30 -319.08,-1.18 -319.16,-1.10L-325.94,35.75C-326.18,36.77 -326.29,37.66 -326.29,38.44C-326.29,40.32 -325.75,41.25 -324.66,41.25C-323.17,41.25 -321.07,39.89 -318.34,37.16C-318.26,37.08 -318.14,37.04 -317.99,37.04ZM-342.50,35.46C-340.04,33.00 -337.90,30.00 -336.06,26.45C-334.23,22.90 -333.04,19.61 -332.50,16.56C-332.26,15.24 -332.14,14.07 -332.14,13.05C-332.14,10.64 -332.69,8.73 -333.78,7.32C-334.87,5.92 -336.40,5.22 -338.35,5.22C-340.53,5.22 -342.69,6.11 -344.84,7.91C-346.98,9.70 -348.86,12.20 -350.45,15.39C-352.05,18.59 -353.20,22.14 -353.91,26.04C-354.30,28.54 -354.49,30.41 -354.49,31.66C-354.49,34.23 -354.06,36.12 -353.20,37.33C-352.35,38.54 -351.18,39.15 -349.69,39.15C-347.35,39.15 -344.96,37.92 -342.50,35.46ZM-309.56,40.55C-309.56,38.99 -309.41,37.39 -309.10,35.75L-298.33,-22.75C-298.10,-24.31 -297.98,-25.59 -297.98,-26.61C-297.98,-28.87 -298.72,-30.00 -300.20,-30.00C-301.14,-30.00 -302.78,-29.46 -305.12,-28.36L-305.23,-28.36C-305.62,-28.36 -305.86,-28.58 -305.94,-29.01C-306.01,-29.44 -305.90,-29.69 -305.59,-29.77L-287.45,-38.66L-287.22,-38.66C-286.90,-38.66 -286.61,-38.54 -286.34,-38.31C-286.07,-38.07 -285.97,-37.88 -286.05,-37.72L-299.15,35.75C-299.38,36.92 -299.50,37.90 -299.50,38.68C-299.50,40.39 -298.92,41.25 -297.75,41.25C-296.97,41.25 -296.09,40.90 -295.11,40.20C-294.14,39.50 -292.95,38.48 -291.55,37.16C-291.39,37.00 -291.23,36.92 -291.08,36.92C-290.84,36.92 -290.65,37.06 -290.49,37.33C-290.34,37.60 -290.38,37.86 -290.61,38.09C-293.26,41.21 -295.60,43.51 -297.63,45.00C-299.66,46.48 -301.76,47.22 -303.95,47.22C-307.69,47.22 -309.56,45.00 -309.56,40.55Z"/>
    <path d="M-553.45,-214.87C-553.45,-215.34 -553.37,-215.57 -553.22,-215.57C-550.33,-215.57 -548.17,-215.76 -546.72,-216.15C-545.28,-216.54 -544.21,-217.30 -543.50,-218.44C-542.80,-219.57 -542.22,-221.30 -541.75,-223.64L-532.27,-277.81C-531.96,-279.69 -531.80,-280.86 -531.80,-281.32C-531.80,-282.57 -532.12,-283.43 -532.74,-283.90C-533.36,-284.37 -534.42,-284.60 -535.90,-284.60L-537.30,-284.60C-539.72,-284.60 -542.26,-283.76 -544.91,-282.08C-547.56,-280.41 -549.94,-278.18 -552.05,-275.41C-554.15,-272.65 -555.67,-269.62 -556.61,-266.35C-556.69,-266.11 -556.94,-266.04 -557.37,-266.11C-557.80,-266.19 -557.97,-266.35 -557.90,-266.58C-557.27,-268.84 -556.34,-272.59 -555.09,-277.81C-553.84,-283.04 -552.94,-287.06 -552.40,-289.86C-552.32,-290.10 -552.05,-290.20 -551.58,-290.16C-551.11,-290.12 -550.91,-289.98 -550.99,-289.75C-551.23,-288.11 -549.71,-287.29 -546.43,-287.29C-540.66,-287.06 -533.52,-286.94 -525.02,-286.94C-521.04,-286.94 -516.63,-287.02 -511.80,-287.17L-504.43,-287.29C-502.09,-287.29 -500.33,-287.49 -499.16,-287.88C-497.99,-288.27 -497.17,-289.05 -496.70,-290.22C-496.55,-290.45 -496.28,-290.55 -495.89,-290.51C-495.50,-290.47 -495.34,-290.29 -495.42,-289.98C-496.12,-287.49 -497.08,-283.45 -498.28,-277.87C-499.49,-272.29 -500.21,-268.53 -500.45,-266.58C-500.53,-266.27 -500.80,-266.13 -501.27,-266.17C-501.74,-266.21 -501.93,-266.39 -501.85,-266.70C-501.62,-268.02 -501.50,-269.27 -501.50,-270.44C-501.50,-274.50 -502.63,-277.87 -504.89,-280.56C-507.16,-283.25 -510.08,-284.60 -513.67,-284.60L-514.96,-284.60C-516.98,-284.60 -518.33,-284.15 -518.99,-283.25C-519.66,-282.36 -520.22,-280.47 -520.69,-277.58L-530.17,-223.64C-530.48,-221.77 -530.63,-220.56 -530.63,-220.02C-530.63,-218.22 -529.99,-217.03 -528.70,-216.45C-527.42,-215.86 -525.02,-215.57 -521.51,-215.57C-521.35,-215.57 -521.27,-215.34 -521.27,-214.87C-521.27,-214.40 -521.35,-214.17 -521.51,-214.17C-524.24,-214.17 -526.38,-214.20 -527.94,-214.28L-537.42,-214.40L-546.55,-214.28C-548.11,-214.20 -550.33,-214.17 -553.22,-214.17C-553.37,-214.17 -553.45,-214.40 -553.45,-214.87ZM-495.01,-217.50C-497.70,-220.81 -499.04,-225.12 -499.04,-230.43C-499.04,-232.77 -498.85,-234.87 -498.46,-236.75C-497.60,-241.43 -495.91,-245.60 -493.37,-249.27C-490.84,-252.93 -487.77,-255.78 -484.19,-257.81C-480.60,-259.83 -476.74,-260.85 -472.60,-260.85C-467.38,-260.85 -463.38,-259.27 -460.61,-256.11C-457.84,-252.95 -456.46,-248.72 -456.46,-243.42C-456.46,-241.31 -456.69,-239.09 -457.16,-236.75C-458.17,-231.60 -460.03,-227.21 -462.72,-223.58C-465.41,-219.96 -468.57,-217.21 -472.19,-215.34C-475.82,-213.46 -479.51,-212.53 -483.25,-212.53C-488.40,-212.53 -492.32,-214.18 -495.01,-217.50ZM-472.78,-219.78C-470.95,-222.67 -469.60,-226.61 -468.74,-231.60C-468.20,-234.64 -467.92,-237.72 -467.92,-240.84C-467.92,-245.91 -468.68,-250.05 -470.20,-253.24C-471.73,-256.44 -473.81,-258.04 -476.46,-258.04C-478.80,-258.04 -480.89,-256.68 -482.72,-253.95C-484.56,-251.22 -485.94,-247.16 -486.88,-241.78C-487.42,-238.74 -487.70,-235.65 -487.70,-232.53C-487.70,-227.46 -486.95,-223.35 -485.47,-220.19C-483.99,-217.03 -481.92,-215.45 -479.27,-215.45C-476.78,-215.45 -474.61,-216.90 -472.78,-219.78ZM-411.47,-256.99C-409.40,-254.88 -408.37,-251.84 -408.37,-247.86C-408.37,-246.54 -408.49,-245.17 -408.72,-243.77C-409.50,-238.54 -411.31,-233.65 -414.16,-229.08C-417.01,-224.52 -420.48,-220.87 -424.57,-218.14C-428.67,-215.41 -432.82,-214.05 -437.03,-214.05C-438.28,-214.05 -439.84,-214.13 -441.71,-214.28L-445.46,-193.34C-445.77,-191.47 -445.93,-190.34 -445.93,-189.95C-445.93,-188.78 -445.65,-187.94 -445.11,-187.43C-444.56,-186.92 -443.66,-186.67 -442.42,-186.67C-442.03,-186.67 -441.21,-186.75 -439.96,-186.90C-439.65,-186.90 -439.43,-186.71 -439.32,-186.32C-439.20,-185.93 -439.30,-185.70 -439.61,-185.62L-461.84,-181.99C-462.07,-181.91 -462.25,-182.11 -462.37,-182.58C-462.48,-183.04 -462.38,-183.32 -462.07,-183.39C-460.51,-183.78 -459.38,-184.23 -458.68,-184.74C-457.98,-185.25 -457.43,-186.05 -457.04,-187.14C-456.65,-188.23 -456.22,-190.02 -455.75,-192.52L-445.69,-248.56C-447.33,-247.63 -449.32,-246.30 -451.66,-244.59C-451.74,-244.51 -451.85,-244.47 -452.01,-244.47C-452.32,-244.47 -452.56,-244.62 -452.71,-244.94C-452.87,-245.25 -452.79,-245.52 -452.48,-245.76C-449.36,-248.25 -446.98,-250.05 -445.34,-251.14L-443.82,-259.33C-443.82,-259.48 -443.16,-259.95 -441.83,-260.73C-439.65,-262.06 -437.81,-263.31 -436.33,-264.48C-434.85,-265.65 -433.91,-266.97 -433.52,-268.45C-433.45,-268.77 -433.19,-268.88 -432.76,-268.80C-432.34,-268.73 -432.16,-268.53 -432.24,-268.22L-434.23,-257.10C-429.55,-259.13 -425.02,-260.15 -420.65,-260.15C-416.60,-260.15 -413.54,-259.09 -411.47,-256.99ZM-419.02,-243.06C-419.02,-246.42 -419.78,-249.15 -421.30,-251.25C-422.82,-253.36 -425.30,-254.41 -428.73,-254.41C-430.83,-254.41 -432.86,-254.14 -434.81,-253.59L-440.90,-219.20C-438.32,-218.10 -435.59,-217.56 -432.71,-217.56C-428.96,-217.56 -426.00,-219.57 -423.81,-223.58C-421.63,-227.60 -420.11,-233.04 -419.25,-239.91C-419.09,-241.31 -419.02,-242.36 -419.02,-243.06ZM-391.23,-274.36C-392.44,-275.57 -393.04,-277.23 -393.04,-279.33C-393.04,-281.21 -392.44,-282.73 -391.23,-283.90C-390.02,-285.07 -388.40,-285.65 -386.37,-285.65C-384.35,-285.65 -382.77,-285.07 -381.64,-283.90C-380.50,-282.73 -379.94,-281.21 -379.94,-279.33C-379.94,-277.15 -380.50,-275.47 -381.64,-274.30C-382.77,-273.13 -384.35,-272.55 -386.37,-272.55C-388.40,-272.55 -390.02,-273.15 -391.23,-274.36ZM-399.83,-219.66C-399.83,-220.83 -399.63,-222.47 -399.24,-224.58L-394.45,-248.91C-394.21,-250.01 -394.10,-250.90 -394.10,-251.61C-394.10,-252.62 -394.29,-253.38 -394.68,-253.89C-395.07,-254.39 -395.58,-254.65 -396.20,-254.65C-397.84,-254.65 -400.06,-253.09 -402.87,-249.97C-402.95,-249.89 -403.07,-249.85 -403.22,-249.85C-403.53,-249.85 -403.77,-249.99 -403.92,-250.26C-404.08,-250.53 -404.08,-250.79 -403.92,-251.02C-401.12,-254.30 -398.58,-256.68 -396.32,-258.16C-394.06,-259.64 -391.83,-260.38 -389.65,-260.38C-385.91,-260.38 -384.03,-258.35 -384.03,-254.30C-384.03,-252.97 -384.19,-251.64 -384.50,-250.32L-389.42,-224.58C-389.57,-223.88 -389.65,-222.98 -389.65,-221.89C-389.65,-220.02 -389.06,-219.08 -387.89,-219.08C-387.11,-219.08 -386.24,-219.43 -385.26,-220.13C-384.29,-220.83 -383.10,-221.85 -381.69,-223.17C-381.54,-223.33 -381.38,-223.41 -381.23,-223.41C-380.99,-223.41 -380.80,-223.27 -380.64,-223.00C-380.48,-222.73 -380.52,-222.47 -380.76,-222.24C-383.41,-219.12 -385.77,-216.82 -387.84,-215.34C-389.90,-213.85 -392.03,-213.11 -394.21,-213.11C-397.96,-213.11 -399.83,-215.30 -399.83,-219.66ZM-371.05,-217.97C-373.62,-221.52 -374.91,-225.98 -374.91,-231.36C-374.91,-233.31 -374.71,-235.46 -374.32,-237.80C-373.54,-242.32 -371.77,-246.34 -369.00,-249.85C-366.23,-253.36 -362.97,-256.07 -359.23,-257.98C-355.49,-259.89 -351.78,-260.85 -348.11,-260.85C-345.23,-260.85 -342.67,-260.22 -340.45,-258.98C-338.23,-257.73 -337.12,-255.93 -337.12,-253.59C-337.12,-251.80 -337.64,-250.38 -338.70,-249.32C-339.75,-248.27 -341.21,-247.74 -343.08,-247.74C-344.96,-247.74 -346.32,-248.23 -347.18,-249.21C-348.04,-250.18 -348.62,-251.45 -348.93,-253.01C-349.32,-254.49 -349.81,-255.62 -350.40,-256.40C-350.98,-257.18 -351.94,-257.57 -353.26,-257.57C-355.60,-257.57 -357.67,-256.15 -359.46,-253.30C-361.26,-250.45 -362.54,-246.65 -363.32,-241.89C-363.79,-239.32 -364.03,-236.86 -364.03,-234.52C-364.03,-229.61 -363.01,-225.69 -360.98,-222.76C-358.96,-219.84 -355.91,-218.38 -351.86,-218.38C-350.30,-218.38 -348.50,-218.75 -346.48,-219.49C-344.45,-220.23 -342.81,-221.07 -341.56,-222.00L-341.45,-222.00C-341.21,-222.00 -340.98,-221.89 -340.74,-221.65C-340.51,-221.42 -340.47,-221.19 -340.63,-220.95C-343.43,-218.22 -346.44,-216.15 -349.64,-214.75C-352.83,-213.35 -355.95,-212.64 -359.00,-212.64C-364.46,-212.64 -368.47,-214.42 -371.05,-217.97ZM-333.02,-215.10C-335.36,-216.58 -336.53,-218.38 -336.53,-220.48C-336.53,-222.28 -336.02,-223.66 -335.01,-224.64C-334.00,-225.61 -332.75,-226.10 -331.27,-226.10C-329.94,-226.10 -328.89,-225.75 -328.11,-225.05C-327.33,-224.34 -326.43,-223.21 -325.42,-221.65C-324.40,-220.02 -323.45,-218.81 -322.55,-218.03C-321.65,-217.25 -320.42,-216.86 -318.86,-216.86C-317.54,-216.86 -316.54,-217.23 -315.88,-217.97C-315.22,-218.71 -314.77,-219.90 -314.54,-221.54C-314.46,-221.85 -314.42,-222.32 -314.42,-222.94C-314.42,-225.20 -315.08,-227.15 -316.41,-228.79C-317.73,-230.43 -319.80,-232.34 -322.61,-234.52C-325.42,-236.86 -327.50,-238.87 -328.87,-240.55C-330.23,-242.23 -330.92,-244.23 -330.92,-246.57C-330.92,-247.04 -330.84,-247.74 -330.68,-248.68C-330.29,-250.63 -329.30,-252.50 -327.70,-254.30C-326.10,-256.09 -324.03,-257.57 -321.50,-258.74C-318.96,-259.91 -316.21,-260.50 -313.25,-260.50C-309.50,-260.50 -306.60,-259.87 -304.53,-258.63C-302.47,-257.38 -301.55,-255.66 -301.78,-253.48C-302.02,-252.00 -302.66,-250.83 -303.71,-249.97C-304.77,-249.11 -305.88,-248.68 -307.05,-248.68C-308.69,-248.68 -309.89,-249.05 -310.67,-249.79C-311.45,-250.53 -312.16,-251.61 -312.78,-253.01C-313.48,-254.41 -314.18,-255.47 -314.89,-256.17C-315.59,-256.87 -316.72,-257.22 -318.28,-257.22C-319.53,-257.22 -320.50,-256.85 -321.20,-256.11C-321.91,-255.37 -322.34,-254.53 -322.49,-253.59C-322.57,-253.28 -322.61,-252.81 -322.61,-252.19C-322.61,-250.16 -321.95,-248.37 -320.62,-246.81C-319.29,-245.25 -317.27,-243.38 -314.54,-241.19C-311.57,-238.77 -309.39,-236.69 -307.98,-234.93C-306.58,-233.18 -305.88,-231.13 -305.88,-228.79C-305.88,-228.40 -305.96,-227.74 -306.11,-226.80C-306.50,-224.70 -307.52,-222.57 -309.15,-220.42C-310.79,-218.28 -312.96,-216.49 -315.65,-215.04C-318.34,-213.60 -321.28,-212.88 -324.48,-212.88C-327.83,-212.88 -330.68,-213.62 -333.02,-215.10Z"/>
    <path d="M-256.61,-436.67C-257.82,-437.88 -258.42,-439.54 -258.42,-441.65C-258.42,-443.52 -257.82,-445.04 -256.61,-446.21C-255.40,-447.38 -253.78,-447.97 -251.75,-447.97C-249.72,-447.97 -248.14,-447.38 -247.01,-446.21C-245.88,-445.04 -245.32,-443.52 -245.32,-441.65C-245.32,-439.46 -245.88,-437.79 -247.01,-436.62C-248.14,-435.45 -249.72,-434.86 -251.75,-434.86C-253.78,-434.86 -255.40,-435.47 -256.61,-436.67ZM-265.21,-381.98C-265.21,-383.15 -265.01,-384.79 -264.62,-386.89L-259.83,-411.23C-259.59,-412.32 -259.47,-413.22 -259.47,-413.92C-259.47,-414.93 -259.67,-415.69 -260.06,-416.20C-260.45,-416.71 -260.96,-416.96 -261.58,-416.96C-263.22,-416.96 -265.44,-415.40 -268.25,-412.28C-268.33,-412.20 -268.44,-412.16 -268.60,-412.16C-268.91,-412.16 -269.15,-412.30 -269.30,-412.57C-269.46,-412.85 -269.46,-413.10 -269.30,-413.33C-266.49,-416.61 -263.96,-418.99 -261.70,-420.47C-259.44,-421.95 -257.21,-422.69 -255.03,-422.69C-251.28,-422.69 -249.41,-420.67 -249.41,-416.61C-249.41,-415.28 -249.57,-413.96 -249.88,-412.63L-254.79,-386.89C-254.95,-386.19 -255.03,-385.29 -255.03,-384.20C-255.03,-382.33 -254.44,-381.39 -253.27,-381.39C-252.49,-381.39 -251.62,-381.74 -250.64,-382.45C-249.67,-383.15 -248.48,-384.16 -247.07,-385.49C-246.92,-385.64 -246.76,-385.72 -246.60,-385.72C-246.37,-385.72 -246.18,-385.58 -246.02,-385.31C-245.86,-385.04 -245.90,-384.79 -246.14,-384.55C-248.79,-381.43 -251.15,-379.13 -253.21,-377.65C-255.28,-376.17 -257.41,-375.43 -259.59,-375.43C-263.34,-375.43 -265.21,-377.61 -265.21,-381.98ZM-190.56,-385.72C-190.33,-385.72 -190.13,-385.58 -189.98,-385.31C-189.82,-385.04 -189.82,-384.79 -189.98,-384.55C-192.63,-381.43 -194.99,-379.13 -197.05,-377.65C-199.12,-376.17 -201.25,-375.43 -203.43,-375.43C-207.18,-375.43 -209.05,-377.61 -209.05,-381.98C-209.05,-383.15 -208.85,-384.79 -208.46,-386.89L-205.07,-405.49C-204.68,-407.68 -204.48,-409.43 -204.48,-410.76C-204.48,-414.58 -205.73,-416.49 -208.23,-416.49C-210.41,-416.49 -212.67,-415.07 -215.01,-412.22C-217.35,-409.37 -219.56,-405.22 -221.62,-399.76C-223.69,-394.30 -225.43,-387.75 -226.83,-380.11L-227.18,-377.88C-227.57,-376.32 -229.76,-375.54 -233.73,-375.54C-236.31,-375.54 -237.60,-375.85 -237.60,-376.48L-237.13,-378.94C-236.35,-382.60 -235.92,-384.67 -235.84,-385.14L-231.04,-411.23C-230.89,-411.93 -230.81,-412.79 -230.81,-413.80C-230.81,-415.91 -231.47,-416.96 -232.80,-416.96C-234.44,-416.96 -236.70,-415.40 -239.58,-412.28C-239.66,-412.20 -239.78,-412.16 -239.94,-412.16C-240.17,-412.16 -240.36,-412.30 -240.52,-412.57C-240.68,-412.85 -240.68,-413.10 -240.52,-413.33C-237.71,-416.61 -235.20,-418.99 -232.97,-420.47C-230.75,-421.95 -228.51,-422.69 -226.25,-422.69C-222.58,-422.69 -220.75,-420.63 -220.75,-416.49C-220.75,-415.32 -220.86,-414.04 -221.10,-412.63L-222.97,-401.98C-220.24,-408.77 -217.10,-414.00 -213.55,-417.66C-210.00,-421.33 -206.24,-423.16 -202.26,-423.16C-196.88,-423.16 -194.19,-419.92 -194.19,-413.45C-194.19,-411.97 -194.38,-410.06 -194.77,-407.72L-198.63,-386.89C-198.87,-385.72 -198.99,-384.79 -198.99,-384.08C-198.99,-382.29 -198.36,-381.39 -197.11,-381.39C-196.33,-381.39 -195.46,-381.74 -194.48,-382.45C-193.51,-383.15 -192.32,-384.16 -190.91,-385.49C-190.76,-385.64 -190.64,-385.72 -190.56,-385.72Z"/>
    <path d="M-123.78,-321.01C-128.62,-323.58 -132.28,-327.15 -134.78,-331.71C-137.28,-336.27 -138.52,-341.52 -138.52,-347.45C-138.52,-350.33 -138.25,-353.14 -137.71,-355.87C-136.38,-363.05 -133.53,-369.44 -129.16,-375.06C-124.80,-380.68 -119.40,-385.06 -112.96,-388.22C-106.53,-391.38 -99.72,-392.96 -92.54,-392.96C-89.19,-392.96 -85.86,-392.63 -82.54,-391.97C-79.23,-391.30 -76.63,-390.50 -74.76,-389.57C-74.29,-389.26 -74.00,-388.94 -73.88,-388.63C-73.77,-388.32 -73.75,-387.74 -73.82,-386.88L-75.70,-371.20C-75.77,-370.97 -75.99,-370.85 -76.34,-370.85C-76.69,-370.85 -76.90,-370.97 -76.98,-371.20C-78.39,-377.13 -80.82,-381.75 -84.30,-385.06C-87.77,-388.38 -92.15,-390.04 -97.46,-390.04C-104.48,-390.04 -110.39,-387.36 -115.18,-382.02C-119.98,-376.68 -123.08,-369.41 -124.48,-360.20C-125.03,-356.85 -125.30,-353.38 -125.30,-349.79C-125.30,-340.43 -123.28,-333.06 -119.22,-327.68C-115.16,-322.29 -109.55,-319.60 -102.37,-319.60C-98.55,-319.60 -95.78,-320.58 -94.06,-322.53C-92.35,-324.48 -91.18,-328.07 -90.55,-333.29C-90.16,-336.18 -89.97,-338.24 -89.97,-339.49C-89.97,-341.36 -90.30,-342.73 -90.96,-343.59C-91.63,-344.45 -92.68,-345.03 -94.12,-345.34C-95.57,-345.65 -97.77,-345.81 -100.73,-345.81C-100.89,-345.81 -101.03,-345.91 -101.14,-346.10C-101.26,-346.30 -101.32,-346.51 -101.32,-346.75C-101.32,-346.98 -101.26,-347.19 -101.14,-347.39C-101.03,-347.58 -100.89,-347.68 -100.73,-347.68C-94.88,-347.29 -90.09,-347.10 -86.34,-347.10C-82.68,-347.10 -78.85,-347.21 -74.88,-347.45C-74.64,-347.45 -74.51,-347.18 -74.47,-346.63C-74.43,-346.08 -74.56,-345.81 -74.88,-345.81C-75.89,-345.89 -76.63,-345.63 -77.10,-345.05C-77.57,-344.46 -78.00,-343.04 -78.39,-340.78C-78.78,-338.52 -79.21,-335.63 -79.67,-332.12C-80.14,-329.08 -80.41,-326.74 -80.49,-325.10C-80.57,-323.46 -80.69,-322.37 -80.84,-321.83C-80.92,-321.36 -81.04,-321.05 -81.19,-320.89C-81.35,-320.73 -81.66,-320.58 -82.13,-320.42C-91.41,-318.24 -99.45,-317.15 -106.23,-317.15C-113.10,-317.15 -118.95,-318.43 -123.78,-321.01ZM-30.24,-362.54C-28.41,-361.06 -27.65,-359.38 -27.96,-357.51C-28.12,-356.34 -28.66,-355.25 -29.60,-354.23C-30.53,-353.22 -31.70,-352.71 -33.11,-352.71C-34.51,-352.71 -36.03,-353.38 -37.67,-354.70C-38.22,-355.09 -38.76,-355.44 -39.31,-355.76C-39.85,-356.07 -40.40,-356.22 -40.95,-356.22C-42.27,-356.22 -43.91,-354.16 -45.86,-350.02C-47.81,-345.89 -49.66,-340.95 -51.42,-335.22C-53.17,-329.49 -54.44,-324.44 -55.22,-320.07L-55.22,-319.95C-55.38,-319.25 -56.00,-318.69 -57.09,-318.26C-58.18,-317.83 -59.74,-317.61 -61.77,-317.61C-64.35,-317.61 -65.63,-317.93 -65.63,-318.55C-65.56,-319.10 -65.30,-320.27 -64.87,-322.06C-64.44,-323.85 -64.07,-325.57 -63.76,-327.21L-58.96,-353.30C-58.81,-354.55 -58.73,-355.37 -58.73,-355.76C-58.73,-357.94 -59.43,-359.03 -60.84,-359.03C-62.40,-359.03 -64.62,-357.47 -67.51,-354.35C-67.58,-354.27 -67.70,-354.23 -67.86,-354.23C-68.17,-354.23 -68.40,-354.37 -68.56,-354.64C-68.71,-354.92 -68.68,-355.17 -68.44,-355.40C-65.63,-358.68 -63.12,-361.06 -60.90,-362.54C-58.67,-364.02 -56.43,-364.76 -54.17,-364.76C-52.22,-364.76 -50.81,-364.24 -49.96,-363.18C-49.10,-362.13 -48.67,-360.59 -48.67,-358.56C-48.67,-357.39 -48.79,-356.11 -49.02,-354.70L-51.36,-341.83C-46.76,-357.12 -41.65,-364.76 -36.03,-364.76C-34.00,-364.76 -32.07,-364.02 -30.24,-362.54ZM19.78,-327.68C20.01,-327.68 20.21,-327.54 20.36,-327.27C20.52,-326.99 20.52,-326.78 20.36,-326.62C15.37,-320.54 11.00,-317.50 7.26,-317.50C5.23,-317.50 3.75,-318.06 2.81,-319.19C1.88,-320.32 1.41,-322.10 1.41,-324.52C1.41,-325.84 1.52,-327.32 1.76,-328.96L3.16,-336.92C0.20,-330.68 -3.33,-325.80 -7.43,-322.29C-11.52,-318.78 -15.52,-317.03 -19.42,-317.03C-21.84,-317.03 -23.75,-317.77 -25.15,-319.25C-26.56,-320.73 -27.26,-322.96 -27.26,-325.92C-27.26,-331.15 -25.52,-336.86 -22.05,-343.06C-18.58,-349.26 -14.29,-354.51 -9.18,-358.80C-4.07,-363.09 0.74,-365.23 5.27,-365.23C6.67,-365.23 8.13,-364.98 9.66,-364.47C11.18,-363.96 12.48,-363.20 13.58,-362.19C15.06,-363.28 16.27,-364.61 17.20,-366.17C17.36,-366.32 17.51,-366.40 17.67,-366.40C17.90,-366.40 18.14,-366.32 18.37,-366.17C18.61,-366.01 18.68,-365.90 18.61,-365.82L11.82,-328.96C11.59,-327.95 11.47,-327.05 11.47,-326.27C11.47,-324.40 12.02,-323.46 13.11,-323.46C14.59,-323.46 16.70,-324.83 19.43,-327.56C19.50,-327.64 19.62,-327.68 19.78,-327.68ZM-4.74,-329.25C-2.28,-331.71 -0.13,-334.71 1.70,-338.26C3.53,-341.81 4.72,-345.11 5.27,-348.15C5.50,-349.48 5.62,-350.65 5.62,-351.66C5.62,-354.08 5.07,-355.99 3.98,-357.39C2.89,-358.80 1.37,-359.50 -0.58,-359.50C-2.77,-359.50 -4.93,-358.60 -7.08,-356.81C-9.22,-355.01 -11.09,-352.52 -12.69,-349.32C-14.29,-346.12 -15.44,-342.57 -16.14,-338.67C-16.53,-336.18 -16.73,-334.31 -16.73,-333.06C-16.73,-330.48 -16.30,-328.59 -15.44,-327.38C-14.58,-326.17 -13.41,-325.57 -11.93,-325.57C-9.59,-325.57 -7.19,-326.80 -4.74,-329.25ZM65.35,-361.37C67.41,-359.27 68.45,-356.22 68.45,-352.25C68.45,-350.92 68.33,-349.55 68.10,-348.15C67.32,-342.92 65.50,-338.03 62.66,-333.47C59.81,-328.90 56.34,-325.26 52.24,-322.53C48.15,-319.80 44.00,-318.43 39.78,-318.43C38.54,-318.43 36.98,-318.51 35.10,-318.67L31.36,-297.72C31.05,-295.85 30.89,-294.72 30.89,-294.33C30.89,-293.16 31.16,-292.32 31.71,-291.81C32.26,-291.31 33.15,-291.05 34.40,-291.05C34.79,-291.05 35.61,-291.13 36.86,-291.29C37.17,-291.29 37.38,-291.09 37.50,-290.70C37.62,-290.31 37.52,-290.08 37.21,-290.00L14.98,-286.37C14.75,-286.30 14.57,-286.49 14.45,-286.96C14.34,-287.43 14.43,-287.70 14.75,-287.78C16.31,-288.17 17.44,-288.62 18.14,-289.12C18.84,-289.63 19.39,-290.43 19.78,-291.52C20.17,-292.61 20.60,-294.41 21.06,-296.90L31.13,-352.95C29.49,-352.01 27.50,-350.69 25.16,-348.97C25.08,-348.89 24.96,-348.85 24.81,-348.85C24.50,-348.85 24.26,-349.01 24.11,-349.32C23.95,-349.63 24.03,-349.91 24.34,-350.14C27.46,-352.64 29.84,-354.43 31.48,-355.52L33.00,-363.71C33.00,-363.87 33.66,-364.34 34.99,-365.12C37.17,-366.44 39.00,-367.69 40.49,-368.86C41.97,-370.03 42.90,-371.36 43.29,-372.84C43.37,-373.15 43.62,-373.27 44.05,-373.19C44.48,-373.11 44.66,-372.92 44.58,-372.60L42.59,-361.49C47.27,-363.52 51.80,-364.53 56.16,-364.53C60.22,-364.53 63.28,-363.48 65.35,-361.37ZM57.80,-347.45C57.80,-350.80 57.04,-353.53 55.52,-355.64C54.00,-357.74 51.52,-358.80 48.09,-358.80C45.98,-358.80 43.96,-358.52 42.01,-357.98L35.92,-323.58C38.50,-322.49 41.23,-321.94 44.11,-321.94C47.86,-321.94 50.82,-323.95 53.00,-327.97C55.19,-331.98 56.71,-337.43 57.57,-344.29C57.72,-345.69 57.80,-346.75 57.80,-347.45ZM120.40,-327.79C120.63,-327.79 120.84,-327.66 121.04,-327.38C121.23,-327.11 121.22,-326.86 120.98,-326.62C118.33,-323.50 115.97,-321.20 113.90,-319.72C111.84,-318.24 109.71,-317.50 107.53,-317.50C103.78,-317.50 101.91,-319.68 101.91,-324.05C101.91,-325.22 102.11,-326.86 102.50,-328.96L105.89,-347.57C106.28,-349.75 106.47,-351.50 106.47,-352.83C106.47,-356.65 105.23,-358.56 102.73,-358.56C100.55,-358.56 98.30,-357.18 96.00,-354.41C93.70,-351.64 91.52,-347.57 89.45,-342.18C87.38,-336.80 85.65,-330.37 84.24,-322.88L83.78,-319.95C83.39,-318.39 81.20,-317.61 77.22,-317.61C74.65,-317.61 73.36,-317.93 73.36,-318.55L73.83,-321.01C74.61,-324.67 75.04,-326.74 75.12,-327.21L86.12,-387.46C86.35,-389.02 86.47,-390.31 86.47,-391.32C86.47,-393.59 85.73,-394.72 84.24,-394.72C83.31,-394.72 81.67,-394.17 79.33,-393.08L79.21,-393.08C78.90,-393.08 78.69,-393.29 78.57,-393.72C78.45,-394.15 78.55,-394.40 78.86,-394.48L97.00,-403.37L97.23,-403.37C97.54,-403.37 97.83,-403.26 98.11,-403.02C98.38,-402.79 98.48,-402.59 98.40,-402.44L88.10,-344.29C90.76,-350.92 93.86,-356.07 97.41,-359.73C100.95,-363.40 104.72,-365.23 108.70,-365.23C114.08,-365.23 116.77,-362.00 116.77,-355.52C116.77,-354.04 116.57,-352.13 116.18,-349.79L112.32,-328.96C112.09,-327.79 111.97,-326.86 111.97,-326.15C111.97,-324.36 112.60,-323.46 113.84,-323.46C114.62,-323.46 115.50,-323.81 116.48,-324.52C117.45,-325.22 118.64,-326.23 120.05,-327.56C120.20,-327.71 120.32,-327.79 120.40,-327.79ZM138.82,-378.75C137.61,-379.95 137.01,-381.61 137.01,-383.72C137.01,-385.59 137.61,-387.11 138.82,-388.28C140.03,-389.45 141.65,-390.04 143.68,-390.04C145.71,-390.04 147.29,-389.45 148.42,-388.28C149.55,-387.11 150.11,-385.59 150.11,-383.72C150.11,-381.53 149.55,-379.86 148.42,-378.69C147.29,-377.52 145.71,-376.93 143.68,-376.93C141.65,-376.93 140.03,-377.54 138.82,-378.75ZM130.22,-324.05C130.22,-325.22 130.42,-326.86 130.81,-328.96L135.61,-353.30C135.84,-354.39 135.96,-355.29 135.96,-355.99C135.96,-357.00 135.76,-357.76 135.37,-358.27C134.98,-358.78 134.48,-359.03 133.85,-359.03C132.21,-359.03 129.99,-357.47 127.18,-354.35C127.10,-354.27 126.99,-354.23 126.83,-354.23C126.52,-354.23 126.29,-354.37 126.13,-354.64C125.97,-354.92 125.97,-355.17 126.13,-355.40C128.94,-358.68 131.47,-361.06 133.73,-362.54C136.00,-364.02 138.22,-364.76 140.40,-364.76C144.15,-364.76 146.02,-362.74 146.02,-358.68C146.02,-357.35 145.86,-356.03 145.55,-354.70L140.64,-328.96C140.48,-328.26 140.40,-327.36 140.40,-326.27C140.40,-324.40 140.99,-323.46 142.16,-323.46C142.94,-323.46 143.82,-323.81 144.79,-324.52C145.77,-325.22 146.96,-326.23 148.36,-327.56C148.52,-327.71 148.67,-327.79 148.83,-327.79C149.06,-327.79 149.26,-327.66 149.41,-327.38C149.57,-327.11 149.53,-326.86 149.30,-326.62C146.64,-323.50 144.28,-321.20 142.22,-319.72C140.15,-318.24 138.02,-317.50 135.84,-317.50C132.10,-317.50 130.22,-319.68 130.22,-324.05ZM159.01,-322.35C156.43,-325.90 155.15,-330.37 155.15,-335.75C155.15,-337.70 155.34,-339.84 155.73,-342.18C156.51,-346.71 158.28,-350.72 161.05,-354.23C163.82,-357.74 167.08,-360.45 170.82,-362.37C174.57,-364.28 178.27,-365.23 181.94,-365.23C184.82,-365.23 187.38,-364.61 189.60,-363.36C191.82,-362.11 192.94,-360.32 192.94,-357.98C192.94,-356.18 192.41,-354.76 191.36,-353.71C190.30,-352.65 188.84,-352.13 186.97,-352.13C185.10,-352.13 183.73,-352.62 182.87,-353.59C182.02,-354.57 181.43,-355.83 181.12,-357.39C180.73,-358.88 180.24,-360.01 179.66,-360.79C179.07,-361.57 178.12,-361.96 176.79,-361.96C174.45,-361.96 172.38,-360.53 170.59,-357.69C168.80,-354.84 167.51,-351.04 166.73,-346.28C166.26,-343.70 166.03,-341.25 166.03,-338.91C166.03,-333.99 167.04,-330.07 169.07,-327.15C171.10,-324.22 174.14,-322.76 178.19,-322.76C179.75,-322.76 181.55,-323.13 183.58,-323.87C185.60,-324.61 187.24,-325.45 188.49,-326.39L188.61,-326.39C188.84,-326.39 189.08,-326.27 189.31,-326.04C189.54,-325.80 189.58,-325.57 189.43,-325.34C186.62,-322.61 183.62,-320.54 180.42,-319.13C177.22,-317.73 174.10,-317.03 171.06,-317.03C165.60,-317.03 161.58,-318.80 159.01,-322.35Z"/>
    <path d="M6.19,-83.88C5.26,-83.96 4.09,-84.04 2.68,-84.12C1.28,-84.20 -0.32,-84.23 -2.11,-84.23L-9.83,-84.12C-11.08,-84.04 -12.84,-84 -15.10,-84C-15.33,-84 -15.45,-84.23 -15.45,-84.70C-15.45,-85.17 -15.33,-85.40 -15.10,-85.40C-12.92,-85.40 -11.30,-85.60 -10.24,-85.99C-9.19,-86.38 -8.39,-87.12 -7.85,-88.21C-7.30,-89.30 -6.79,-91.06 -6.33,-93.48L3.27,-147.65C3.58,-149.68 3.74,-150.96 3.74,-151.51C3.74,-153.15 3.27,-154.26 2.33,-154.84C1.40,-155.43 -0.24,-155.72 -2.58,-155.72C-2.74,-155.72 -2.82,-155.96 -2.82,-156.42C-2.82,-156.89 -2.74,-157.13 -2.58,-157.13L2.92,-157.01C6.04,-156.85 8.61,-156.77 10.64,-156.77C12.82,-156.77 15.09,-156.89 17.43,-157.13C20.55,-157.28 22.81,-157.36 24.21,-157.36C30.76,-157.36 36.50,-156.17 41.41,-153.79C46.33,-151.41 50.09,-148.06 52.70,-143.73C55.31,-139.40 56.62,-134.39 56.62,-128.69C56.62,-126.12 56.43,-123.82 56.04,-121.79C54.71,-114.30 51.84,-107.65 47.44,-101.84C43.03,-96.03 37.75,-91.53 31.58,-88.33C25.42,-85.13 19.14,-83.53 12.75,-83.53C10.87,-83.53 8.69,-83.65 6.19,-83.88ZM31.76,-94.71C37.26,-100.59 40.94,-108.76 42.81,-119.22C43.36,-122.26 43.63,-125.53 43.63,-129.04C43.63,-136.61 42.00,-142.83 38.72,-147.71C35.44,-152.58 30.26,-155.02 23.16,-155.02C20.35,-155.02 18.36,-154.45 17.19,-153.32C16.02,-152.19 15.20,-150.22 14.73,-147.41L5.38,-94.76C5.14,-93.52 5.02,-92.42 5.02,-91.49C5.02,-89.54 5.57,-88.11 6.66,-87.22C7.75,-86.32 9.63,-85.87 12.28,-85.87C19.77,-85.87 26.26,-88.82 31.76,-94.71ZM96.28,-129.16C97.92,-128.15 98.74,-126.74 98.74,-124.95C98.74,-121.44 96.15,-118.14 90.96,-115.06C85.77,-111.98 79.51,-109.74 72.18,-108.34C71.95,-106.62 71.83,-104.94 71.83,-103.30C71.83,-98.63 72.81,-94.86 74.76,-92.01C76.71,-89.17 79.59,-87.74 83.41,-87.74C85.05,-87.74 86.83,-88.04 88.74,-88.62C90.65,-89.21 92.38,-90.12 93.94,-91.37L94.06,-91.37C94.29,-91.37 94.51,-91.25 94.70,-91.02C94.90,-90.79 94.92,-90.59 94.76,-90.44C91.96,-87.71 88.99,-85.72 85.87,-84.47C82.75,-83.22 79.63,-82.60 76.51,-82.60C71.13,-82.60 67.09,-84.23 64.40,-87.51C61.71,-90.79 60.37,-94.92 60.37,-99.91C60.37,-101.63 60.56,-103.54 60.95,-105.64C61.73,-109.86 63.47,-113.87 66.16,-117.70C68.85,-121.52 72.22,-124.64 76.28,-127.06C80.33,-129.47 84.70,-130.68 89.38,-130.68C92.35,-130.68 94.65,-130.18 96.28,-129.16ZM87.04,-123.31C87.04,-124.64 86.71,-125.67 86.05,-126.41C85.38,-127.15 84.47,-127.52 83.30,-127.52C80.80,-127.52 78.60,-125.92 76.69,-122.73C74.78,-119.53 73.35,-115.36 72.42,-110.21C81.39,-112.55 86.22,-116.45 86.92,-121.91C87.00,-122.22 87.04,-122.69 87.04,-123.31ZM103.66,-84.94C101.31,-86.42 100.14,-88.21 100.14,-90.32C100.14,-92.11 100.65,-93.50 101.67,-94.47C102.68,-95.45 103.93,-95.93 105.41,-95.93C106.74,-95.93 107.79,-95.58 108.57,-94.88C109.35,-94.18 110.25,-93.05 111.26,-91.49C112.27,-89.85 113.23,-88.64 114.13,-87.86C115.02,-87.08 116.25,-86.69 117.81,-86.69C119.14,-86.69 120.13,-87.06 120.80,-87.80C121.46,-88.54 121.91,-89.73 122.14,-91.37C122.22,-91.68 122.26,-92.15 122.26,-92.78C122.26,-95.04 121.60,-96.99 120.27,-98.63C118.94,-100.26 116.88,-102.17 114.07,-104.36C111.26,-106.70 109.17,-108.71 107.81,-110.38C106.44,-112.06 105.76,-114.07 105.76,-116.41C105.76,-116.88 105.84,-117.58 106.00,-118.52C106.39,-120.46 107.38,-122.34 108.98,-124.13C110.58,-125.93 112.64,-127.41 115.18,-128.58C117.71,-129.75 120.46,-130.33 123.43,-130.33C127.17,-130.33 130.08,-129.71 132.14,-128.46C134.21,-127.21 135.13,-125.50 134.89,-123.31C134.66,-121.83 134.02,-120.66 132.96,-119.80C131.91,-118.94 130.80,-118.52 129.63,-118.52C127.99,-118.52 126.78,-118.89 126.00,-119.63C125.22,-120.37 124.52,-121.44 123.90,-122.84C123.19,-124.25 122.49,-125.30 121.79,-126.00C121.09,-126.71 119.96,-127.06 118.40,-127.06C117.15,-127.06 116.17,-126.69 115.47,-125.94C114.77,-125.20 114.34,-124.36 114.19,-123.43C114.11,-123.12 114.07,-122.65 114.07,-122.03C114.07,-120.00 114.73,-118.20 116.06,-116.64C117.38,-115.08 119.41,-113.21 122.14,-111.03C125.10,-108.61 127.29,-106.52 128.69,-104.77C130.10,-103.01 130.80,-100.96 130.80,-98.63C130.80,-98.23 130.72,-97.57 130.56,-96.64C130.17,-94.53 129.16,-92.40 127.52,-90.26C125.88,-88.11 123.72,-86.32 121.03,-84.88C118.34,-83.43 115.39,-82.71 112.20,-82.71C108.84,-82.71 106.00,-83.45 103.66,-84.94ZM151.92,-144.20C150.71,-145.41 150.10,-147.06 150.10,-149.17C150.10,-151.04 150.71,-152.56 151.92,-153.73C153.13,-154.90 154.75,-155.49 156.77,-155.49C158.80,-155.49 160.38,-154.90 161.51,-153.73C162.64,-152.56 163.21,-151.04 163.21,-149.17C163.21,-146.98 162.64,-145.31 161.51,-144.14C160.38,-142.97 158.80,-142.38 156.77,-142.38C154.75,-142.38 153.13,-142.99 151.92,-144.20ZM143.32,-89.50C143.32,-90.67 143.51,-92.31 143.90,-94.41L148.70,-118.75C148.93,-119.84 149.05,-120.74 149.05,-121.44C149.05,-122.45 148.86,-123.21 148.47,-123.72C148.08,-124.23 147.57,-124.48 146.95,-124.48C145.31,-124.48 143.08,-122.92 140.28,-119.80C140.20,-119.72 140.08,-119.69 139.93,-119.69C139.61,-119.69 139.38,-119.82 139.22,-120.09C139.07,-120.37 139.07,-120.62 139.22,-120.86C142.03,-124.13 144.57,-126.51 146.83,-127.99C149.09,-129.47 151.31,-130.21 153.50,-130.21C157.24,-130.21 159.11,-128.19 159.11,-124.13C159.11,-122.81 158.96,-121.48 158.65,-120.15L153.73,-94.41C153.58,-93.71 153.50,-92.81 153.50,-91.72C153.50,-89.85 154.08,-88.91 155.25,-88.91C156.03,-88.91 156.91,-89.26 157.88,-89.97C158.86,-90.67 160.05,-91.68 161.45,-93.01C161.61,-93.16 161.77,-93.24 161.92,-93.24C162.16,-93.24 162.35,-93.11 162.51,-92.83C162.66,-92.56 162.62,-92.31 162.39,-92.07C159.74,-88.95 157.38,-86.65 155.31,-85.17C153.24,-83.69 151.12,-82.95 148.93,-82.95C145.19,-82.95 143.32,-85.13 143.32,-89.50ZM212.11,-128.46C212.11,-127.13 211.94,-125.77 211.59,-124.37C211.24,-122.96 210.91,-122.38 210.59,-122.61C208.10,-124.33 205.21,-125.26 201.94,-125.42C203.73,-123.16 204.63,-120.35 204.63,-116.99C204.63,-115.43 204.47,-114.03 204.16,-112.78C203.07,-107.56 200.53,-103.36 196.55,-100.20C192.57,-97.05 188.21,-95.47 183.45,-95.47C182.43,-95.47 181.69,-95.51 181.23,-95.58C180.76,-94.65 180.52,-93.91 180.52,-93.36C180.29,-91.41 180.97,-89.79 182.57,-88.50C184.17,-87.22 186.76,-85.68 190.35,-83.88C193.39,-82.40 195.83,-81.09 197.66,-79.96C199.50,-78.83 201.08,-77.37 202.40,-75.58C203.73,-73.78 204.39,-71.64 204.39,-69.14C204.39,-65.55 203.18,-62.39 200.77,-59.66C198.35,-56.93 195.15,-54.83 191.17,-53.35C187.19,-51.86 182.90,-51.12 178.30,-51.12C172.61,-51.12 168.12,-52.23 164.85,-54.46C161.57,-56.68 159.93,-59.47 159.93,-62.82C159.93,-65.94 161.30,-68.85 164.03,-71.54C166.76,-74.23 170.66,-76.94 175.73,-79.67C172.92,-81.54 171.52,-83.53 171.52,-85.64C171.52,-87.28 172.18,-88.91 173.50,-90.55C174.83,-92.19 176.74,-94.02 179.24,-96.05C176.51,-96.83 174.40,-98.37 172.92,-100.67C171.44,-102.97 170.70,-105.65 170.70,-108.69C170.70,-109.55 170.85,-110.91 171.16,-112.78C172.10,-117.70 174.52,-121.77 178.42,-125.01C182.32,-128.25 186.76,-129.86 191.76,-129.86C195.11,-129.86 197.84,-129.04 199.95,-127.41C204.08,-129.36 207.94,-130.33 211.53,-130.33C211.92,-130.33 212.11,-129.71 212.11,-128.46ZM194.21,-115.47C194.21,-118.75 193.78,-121.56 192.93,-123.90C192.07,-126.24 190.74,-127.41 188.95,-127.41C187.23,-127.41 185.63,-126.08 184.15,-123.43C182.67,-120.78 181.73,-117.50 181.34,-113.60C181.19,-111.73 181.11,-110.40 181.11,-109.62C181.11,-106.19 181.62,-103.40 182.63,-101.26C183.64,-99.11 184.93,-98.04 186.49,-98.04C188.21,-98.04 189.79,-99.31 191.23,-101.84C192.67,-104.38 193.59,-107.67 193.98,-111.73C194.14,-113.29 194.21,-114.54 194.21,-115.47ZM191.52,-70.66C189.34,-72.46 186.18,-74.37 182.04,-76.39C180.33,-77.10 178.77,-77.88 177.37,-78.73C172.76,-75.07 170.46,-70.93 170.46,-66.33C170.46,-62.98 171.79,-60.21 174.44,-58.03C177.09,-55.84 180.37,-54.75 184.27,-54.75C187.86,-54.75 190.51,-55.63 192.22,-57.38C193.94,-59.14 194.80,-61.22 194.80,-63.64C194.80,-66.53 193.71,-68.87 191.52,-70.66ZM263.36,-93.24C263.59,-93.24 263.79,-93.11 263.95,-92.83C264.10,-92.56 264.10,-92.31 263.95,-92.07C261.29,-88.95 258.93,-86.65 256.87,-85.17C254.80,-83.69 252.67,-82.95 250.49,-82.95C246.75,-82.95 244.87,-85.13 244.87,-89.50C244.87,-90.67 245.07,-92.31 245.46,-94.41L248.85,-113.02C249.24,-115.20 249.44,-116.96 249.44,-118.28C249.44,-122.10 248.19,-124.01 245.69,-124.01C243.51,-124.01 241.25,-122.59 238.91,-119.74C236.57,-116.90 234.36,-112.74 232.30,-107.28C230.23,-101.82 228.49,-95.27 227.09,-87.63L226.74,-85.40C226.35,-83.84 224.17,-83.06 220.19,-83.06C217.61,-83.06 216.33,-83.38 216.33,-84L216.79,-86.46C217.57,-90.12 218.00,-92.19 218.08,-92.66L222.88,-118.75C223.03,-119.45 223.11,-120.31 223.11,-121.32C223.11,-123.43 222.45,-124.48 221.12,-124.48C219.49,-124.48 217.22,-122.92 214.34,-119.80C214.26,-119.72 214.14,-119.69 213.99,-119.69C213.75,-119.69 213.56,-119.82 213.40,-120.09C213.25,-120.37 213.25,-120.62 213.40,-120.86C216.21,-124.13 218.72,-126.51 220.95,-127.99C223.17,-129.47 225.41,-130.21 227.67,-130.21C231.34,-130.21 233.17,-128.15 233.17,-124.01C233.17,-122.84 233.06,-121.56 232.82,-120.15L230.95,-109.51C233.68,-116.29 236.82,-121.52 240.37,-125.18C243.92,-128.85 247.68,-130.68 251.66,-130.68C257.04,-130.68 259.73,-127.45 259.73,-120.97C259.73,-119.49 259.54,-117.58 259.15,-115.24L255.29,-94.41C255.05,-93.24 254.94,-92.31 254.94,-91.61C254.94,-89.81 255.56,-88.91 256.81,-88.91C257.59,-88.91 258.47,-89.26 259.44,-89.97C260.42,-90.67 261.61,-91.68 263.01,-93.01C263.17,-93.16 263.28,-93.24 263.36,-93.24ZM275.00,-117.70C273.79,-118.87 273.19,-120.50 273.19,-122.61C273.19,-124.56 273.79,-126.10 275.00,-127.23C276.21,-128.36 277.83,-128.93 279.86,-128.93C281.89,-128.93 283.46,-128.36 284.60,-127.23C285.73,-126.10 286.29,-124.56 286.29,-122.61C286.29,-120.50 285.73,-118.87 284.60,-117.70C283.46,-116.53 281.89,-115.94 279.86,-115.94C277.83,-115.94 276.21,-116.53 275.00,-117.70ZM270.67,-84.82C269.46,-85.99 268.86,-87.63 268.86,-89.73C268.86,-91.68 269.46,-93.22 270.67,-94.35C271.88,-95.49 273.50,-96.05 275.53,-96.05C277.56,-96.05 279.14,-95.49 280.27,-94.35C281.40,-93.22 281.96,-91.68 281.96,-89.73C281.96,-87.63 281.40,-85.99 280.27,-84.82C279.14,-83.65 277.56,-83.06 275.53,-83.06C273.50,-83.06 271.88,-83.65 270.67,-84.82Z"/>
    <path d="M-508.15,336.00L-793.29,466.17" fill="none" stroke="#000000"/>
    <path d="M-508.15,336.00L-793.29,205.83" fill="none" stroke="#000000"/>
    <path d="M-508.15,336.00L-589.76,43.52" fill="none" stroke="#000000"/>
    <path d="M-508.15,336.00L-335.95,101.45" fill="none" stroke="#000000"/>
    <path d="M-508.15,336.00L-223,336" fill="none" stroke="#000000"/>
    <path d="M-508.15,336.00L-335.95,570.55" fill="none" stroke="#000000"/>
    <path d="M-508.15,336.00L-589.76,628.48" fill="none" stroke="#000000"/>
    <path d="M215.09,82.25C217.89,69.29 217.46,50.06 200.18,50.06C183.98,50.06 175.13,65.83 171.67,82.25L150.93,180.09C147.91,195.21 149.21,212.28 165.84,212.28C182.25,212.28 190.68,196.51 194.13,180.09ZM176.21,180.09C175.34,185.06 172.97,189.60 170.81,189.60C168.86,189.60 168.00,185.93 169.08,180.09L190.03,82.25C191.11,77.06 193.27,72.74 195.65,72.74C198.02,72.74 198.24,77.28 197.16,82.25ZM198.02,210.55L215.73,210.55L229.34,147.05C235.82,146.83 242.95,144.45 248.35,137.97C254.61,130.41 260.23,117.24 264.12,99.31C268.01,81.38 267.79,68.85 264.55,61.29C261.53,53.95 256.99,51.79 249.86,51.79L231.72,51.79ZM244.68,75.12C246.62,75.12 249.21,75.12 249.65,77.49C250.73,81.38 248.57,91.32 246.62,100.17C244.68,109.03 242.95,117.24 240.57,120.69C239.06,122.85 236.04,123.29 234.31,123.29ZM250.08,210.55L285.72,210.55L290.90,186.57L272.97,186.57L282.26,142.94L295.22,142.94L300.62,117.45L287.66,117.45L296.52,75.77L314.45,75.77L319.63,51.79L283.77,51.79ZM325.68,210.55L340.80,210.55L374.71,51.79L358.08,51.79L342.09,126.74L345.12,51.79L330.00,51.79L296.30,210.55L312.72,210.55L329.13,133.44Z"/>
    <path d="M-92.18,149.89C-89.37,136.72 -83.97,107.56 -104.92,107.99C-122.20,108.42 -129.98,131.32 -132.78,145.14C-135.38,157.45 -133.86,173.22 -131.70,185.97C-127.17,208.21 -124.79,220.09 -127.60,233.49C-129.76,243.64 -131.27,248.82 -134.51,248.82C-139.26,248.82 -134.51,226.57 -133.43,221.61L-151.58,224.20C-154.38,238.67 -161.51,270.21 -139.05,270.21C-120.47,270.21 -112.91,247.53 -109.67,232.41C-106.22,216.42 -109.02,201.30 -112.70,182.51C-115.50,166.74 -117.45,155.51 -115.29,145.14C-113.34,135.85 -111.62,129.37 -109.02,129.37C-105.57,129.37 -109.24,146.87 -110.32,152.49ZM-37.74,140.17C-34.94,127.21 -35.37,107.99 -52.65,107.99C-68.85,107.99 -77.70,123.76 -81.16,140.17L-101.90,238.02C-104.92,253.14 -103.62,270.21 -86.99,270.21C-70.58,270.21 -62.15,254.44 -58.70,238.02ZM-76.62,238.02C-77.49,242.99 -79.86,247.53 -82.02,247.53C-83.97,247.53 -84.83,243.85 -83.75,238.02L-62.80,140.17C-61.72,134.99 -59.56,130.67 -57.18,130.67C-54.81,130.67 -54.59,135.21 -55.67,140.17ZM2.00,109.72L-25.22,238.02C-26.30,243.21 -27.81,247.53 -30.40,247.53C-33.21,247.53 -33.21,244.07 -31.91,238.02L-4.70,109.72L-22.62,109.72L-49.62,238.02C-53.08,254.22 -52.43,270.21 -35.37,270.21C-19.17,270.21 -11.18,255.95 -7.29,238.02L19.93,109.72ZM43.69,268.48L49.09,191.58C56.22,184.89 61.83,170.63 65.07,155.51C71.34,125.49 67.88,109.72 51.03,109.72L32.89,109.72L-0.81,268.48L16.90,268.48L31.81,199.36L26.19,268.48ZM45.85,132.83C46.93,132.83 49.30,132.61 50.38,134.99C51.46,137.58 50.17,144.71 47.79,156.37C45.42,167.82 43.47,175.81 40.88,178.62C39.37,180.35 37.21,181.00 35.70,181.00ZM87.75,214.05L82.57,238.02C81.92,241.05 80.41,247.53 76.95,247.53C74.36,247.53 75.22,241.05 75.87,238.02L97.04,139.31C97.69,135.85 98.98,130.67 101.79,130.67C105.25,130.67 104.17,137.37 103.52,140.17L98.34,164.15L115.83,164.15L121.02,140.17C123.39,128.94 123.61,107.99 106.33,107.99C90.13,107.99 81.49,126.13 78.46,140.17L57.73,238.02C54.92,252.06 55.35,270.21 71.98,270.21C88.40,270.21 96.61,254.65 100.06,238.02L105.25,214.05ZM103.95,268.48L139.59,268.48L144.78,244.50L126.85,244.50L136.14,200.87L149.10,200.87L154.50,175.38L141.54,175.38L150.39,133.69L168.32,133.69L173.50,109.72L137.65,109.72Z"/>
    <g>
        <path d="M561.20,255.75L566.10,237.82L571.00,225.18L575.90,221.55L580.80,228.00L585.70,242.62L590.60,261.11L595.50,278.02L600.40,288.37L605.30,289.10L610.20,280.00L615.10,263.75L620.00,245.15L624.90,229.66L629.80,221.87L634.70,224.06L639.60,235.58L644.50,253.05L649.40,271.32L654.30,284.99L659.20,290.05L664.10,284.99L669.00,271.32L673.90,253.05L678.80,235.58L683.70,224.06L688.60,221.87L693.50,229.66L698.40,245.15L703.30,263.75L708.20,280.00L713.10,289.10L718.00,288.37L722.90,278.02L727.80,261.11L732.70,242.62L737.60,228.00L742.50,221.55L747.40,225.18L752.30,237.82L757.20,255.75L762.10,273.67L767.00,286.31L771.90,289.94L776.80,283.49L781.70,268.87L786.60,250.38L791.50,233.47L796.40,223.12" fill="none" stroke="#000000"/>
    </g>
    <g>
        <path d="M-544.43,457.61L-539.53,439.69L-534.63,427.05L-529.73,423.41L-524.83,429.86L-519.93,444.48L-515.03,462.97L-510.13,479.88L-505.23,490.23L-500.33,490.96L-495.43,481.86L-490.53,465.62L-485.63,447.01L-480.73,431.53L-475.83,423.73L-470.93,425.92L-466.03,437.45L-461.13,454.92L-456.23,473.18L-451.33,486.85L-446.43,491.91L-441.53,486.85L-436.63,473.18L-431.73,454.92L-426.83,437.45L-421.93,425.92L-417.03,423.73L-412.13,431.53L-407.23,447.01L-402.33,465.62L-397.43,481.86L-392.53,490.96L-387.63,490.23L-382.73,479.88L-377.83,462.97L-372.93,444.48L-368.03,429.86L-363.13,423.41L-358.23,427.05L-353.33,439.69L-348.43,457.61L-343.53,475.53L-338.63,488.17L-333.73,491.80L-328.83,485.36L-323.93,470.73L-319.03,452.24L-314.13,435.33L-309.23,424.99" fill="none" stroke="#000000"/>
    </g>
    <g>
        <path d="M496.08,-285.69L500.98,-303.61L505.88,-316.25L510.78,-319.89L515.68,-313.44L520.58,-298.82L525.48,-280.33L530.38,-263.42L535.28,-253.07L540.18,-252.34L545.08,-261.44L549.98,-277.69L554.88,-296.29L559.78,-311.77L564.68,-319.57L569.58,-317.38L574.48,-305.85L579.38,-288.38L584.28,-270.12L589.18,-256.45L594.08,-251.39L598.98,-256.45L603.88,-270.12L608.78,-288.38L613.68,-305.85L618.58,-317.38L623.48,-319.57L628.38,-311.77L633.28,-296.29L638.18,-277.69L643.08,-261.44L647.98,-252.34L652.88,-253.07L657.78,-263.42L662.68,-280.33L667.58,-298.82L672.48,-313.44L677.38,-319.89L682.28,-316.25L687.18,-303.61L692.08,-285.69L696.98,-267.77L701.88,-255.13L706.78,-251.50L711.68,-257.94L716.58,-272.57L721.48,-291.06L726.38,-307.97L731.28,-318.31" fill="none" stroke="#000000"/>
    </g>
    <g>
        <path d="M303.63,304.25L308.53,286.33L313.43,273.69L318.33,270.06L323.23,276.50L328.13,291.13L333.03,309.62L337.93,326.53L342.83,336.87L347.73,337.61L352.63,328.51L357.53,312.26L362.43,293.65L367.33,278.17L372.23,270.38L377.13,272.56L382.03,284.09L386.93,301.56L391.83,319.83L396.73,333.50L401.63,338.55L406.53,333.50L411.43,319.83L416.33,301.56L421.23,284.09L426.13,272.56L431.03,270.38L435.93,278.17L440.83,293.65L445.73,312.26L450.63,328.51L455.53,337.61L460.43,336.87L465.33,326.53L470.23,309.62L475.13,291.13L480.03,276.50L484.93,270.06L489.83,273.69L494.73,286.33L499.63,304.25L504.53,322.17L509.43,334.81L514.33,338.45L519.23,332.00L524.13,317.38L529.03,298.89L533.93,281.98L538.83,271.63" fill="none" stroke="#000000"/>
    </g>
    <g>
        <path d="M151.40,-120.69L156.30,-138.62L161.20,-151.26L166.10,-154.89L171.00,-148.44L175.90,-133.82L180.80,-115.33L185.70,-98.42L190.60,-88.07L195.50,-87.34L200.40,-96.44L205.30,-112.69L210.20,-131.29L215.10,-146.78L220.00,-154.57L224.90,-152.38L229.80,-140.86L234.70,-123.39L239.60,-105.12L244.50,-91.45L249.40,-86.39L254.30,-91.45L259.20,-105.12L264.10,-123.39L269.00,-140.86L273.90,-152.38L278.80,-154.57L283.70,-146.78L288.60,-131.29L293.50,-112.69L298.40,-96.44L303.30,-87.34L308.20,-88.07L313.10,-98.42L318.00,-115.33L322.90,-133.82L327.80,-148.44L332.70,-154.89L337.60,-151.26L342.50,-138.62L347.40,-120.69L352.30,-102.77L357.20,-90.13L362.10,-86.50L367.00,-92.94L371.90,-107.57L376.80,-126.06L381.70,-142.97L386.60,-153.32" fill="none" stroke="#000000"/>
    </g>
    <g>
        <path d="M-815.90,-243.82L-811.00,-261.75L-806.10,-274.39L-801.20,-278.02L-796.30,-271.57L-791.40,-256.95L-786.50,-238.46L-781.60,-221.55L-776.70,-211.20L-771.80,-210.47L-766.90,-219.57L-762.00,-235.82L-757.10,-254.42L-752.20,-269.91L-747.30,-277.70L-742.40,-275.51L-737.50,-263.99L-732.60,-246.52L-727.70,-228.25L-722.80,-214.58L-717.90,-209.52L-713.00,-214.58L-708.10,-228.25L-703.20,-246.52L-698.30,-263.99L-693.40,-275.51L-688.50,-277.70L-683.60,-269.91L-678.70,-254.42L-673.80,-235.82L-668.90,-219.57L-664.00,-210.47L-659.10,-211.20L-654.20,-221.55L-649.30,-238.46L-644.40,-256.95L-639.50,-271.57L-634.60,-278.02L-629.70,-274.39L-624.80,-261.75L-619.90,-243.82L-615.00,-225.90L-610.10,-213.26L-605.20,-209.63L-600.30,-216.07L-595.40,-230.70L-590.50,-249.19L-585.60,-266.10L-580.70,-276.45" fill="none" stroke="#000000"/>
    </g>
    <g>
        <path d="M676.85,-465.56L681.75,-483.48L686.65,-496.12L691.55,-499.75L696.45,-493.31L701.35,-478.68L706.25,-460.19L711.15,-443.28L716.05,-432.94L720.95,-432.20L725.85,-441.30L730.75,-457.55L735.65,-476.16L740.55,-491.64L745.45,-499.43L750.35,-497.25L755.25,-485.72L760.15,-468.25L765.05,-449.98L769.95,-436.31L774.85,-431.26L779.75,-436.31L784.65,-449.98L789.55,-468.25L794.45,-485.72L799.35,-497.25L804.25,-499.43L809.15,-491.64L814.05,-476.16L818.95,-457.55L823.85,-441.30L828.75,-432.20L833.65,-432.94L838.55,-443.28L843.45,-460.19L848.35,-478.68L853.25,-493.31L858.15,-499.75L863.05,-496.12L867.95,-483.48L872.85,-465.56L877.75,-447.64L882.65,-435.00L887.55,-431.36L892.45,-437.81L897.35,-452.43L902.25,-470.92L907.15,-487.83L912.05,-498.18" fill="none" stroke="#000000"/>
    </g>
</svg>