<?xml version="1.0"?>
<svg xmlns="http://www.w3.org/2000/svg" width="1920" height="1080" viewBox="-960 -540 1920 1080">
    <path d="M-790.63,-352.91L378.45,128.60" fill="none" stroke="#000000"/>
    <path d="M-782.62,-354.47L386.25,127.70" fill="none" stroke="#000000"/>
    <path d="M-773.91,-356.27L394.31,127.70" fill="none" stroke="#000000"/>
    <path d="M-769.91,-349.05L402.38,127.70" fill="none" stroke="#000000"/>
    <path d="M-769.86,-340.24L410.44,127.70" fill="none" stroke="#000000"/>
    <path d="M-772.51,-331.43L418.51,127.70" fill="none" stroke="#000000"/>
    <path d="M-780.16,-329.88L426.57,127.70" fill="none" stroke="#000000"/>
    <path d="M-788.84,-331.05L434.63,127.70" fill="none" stroke="#000000"/>
    <path d="M-797.20,-333.85L442.70,127.70" fill="none" stroke="#000000"/>
    <path d="M-801.18,-332.68L450.76,127.70" fill="none" stroke="#000000"/>
    <path d="M-798.55,-324.24L458.83,127.70" fill="none" stroke="#000000"/>
    <path d="M-796.75,-316.01L463.19,132.49" fill="none" stroke="#000000"/>
    <path d="M-796.16,-307.26L463.12,140.55" fill="none" stroke="#000000"/>
    <path d="M-797.77,-298.92L463.04,148.70" fill="none" stroke="#000000"/>
    <path d="M-803.99,-292.65L457.20,152.30" fill="none" stroke="#000000"/>
    <path d="M-812.20,-288.82L449.14,152.30" fill="none" stroke="#000000"/>
    <path d="M-820.66,-287.51L441.07,152.30" fill="none" stroke="#000000"/>
    <path d="M-829.01,-290.02L433.01,152.30" fill="none" stroke="#000000"/>
    <path d="M-835.85,-295.49L424.95,152.30" fill="none" stroke="#000000"/>
    <path d="M-840.31,-302.64L416.88,152.30" fill="none" stroke="#000000"/>
    <path d="M-836.53,-310.59L411.75,156.41" fill="none" stroke="#000000"/>
    <path d="M-828.78,-312.23L411.75,164.48" fill="none" stroke="#000000"/>
    <path d="M-819.98,-312.23L413.11,172.00" fill="none" stroke="#000000"/>
    <path d="M-820.57,-319.04L421.18,172.25" fill="none" stroke="#000000"/>
    <path d="M-823.31,-327.41L429.24,172.25" fill="none" stroke="#000000"/>
    <path d="M-826.04,-335.77L437.30,172.25" fill="none" stroke="#000000"/>
    <path d="M-828.78,-344.13L444.65,173.77" fill="none" stroke="#000000"/>
    <path d="M-831.51,-352.49L444.90,181.91" fill="none" stroke="#000000"/>
    <path d="M-834.24,-360.85L444.90,189.98" fill="none" stroke="#000000"/>
    <path d="M-836.98,-369.21L441.97,196.10" fill="none" stroke="#000000"/>
    <path d="M-839.71,-377.58L433.90,196.10" fill="none" stroke="#000000"/>
    <path d="M-841.37,-385.92L425.84,196.10" fill="none" stroke="#000000"/>
    <path d="M-839.28,-394.60L417.78,196.10" fill="none" stroke="#000000"/>
    <path d="M-834.95,-402.49L411.75,199.08" fill="none" stroke="#000000"/>
    <path d="M-827.24,-402.81L411.75,207.14" fill="none" stroke="#000000"/>
    <path d="M-818.63,-401.01L411.75,215.21" fill="none" stroke="#000000"/>
    <path d="M-810.01,-399.20L411.75,223.27" fill="none" stroke="#000000"/>
    <path d="M-801.40,-397.40L411.75,231.34" fill="none" stroke="#000000"/>
    <path d="M-792.92,-399.13L409.82,238.47" fill="none" stroke="#000000"/>
    <path d="M-784.47,-401.57L401.64,239" fill="none" stroke="#000000"/>
    <path d="M-776.02,-404.00L393.57,239.00" fill="none" stroke="#000000"/>
    <path d="M-769.32,-400.57L385.51,239.00" fill="none" stroke="#000000"/>
    <path d="M-766.73,-392.19L378.13,237.44" fill="none" stroke="#000000"/>
    <path d="M-766.90,-383.16L377.70,229.30" fill="none" stroke="#000000"/>
    <path d="M-769.61,-374.63L377.70,221.24" fill="none" stroke="#000000"/>
    <path d="M-775.38,-369.48L377.70,213.17" fill="none" stroke="#000000"/>
    <path d="M-783.04,-370.81L377.70,205.11" fill="none" stroke="#000000"/>
    <path d="M-791.36,-372.58L377.70,197.05" fill="none" stroke="#000000"/>
    <path d="M-800.35,-374.80L377.70,188.98" fill="none" stroke="#000000"/>
    <path d="M-808.99,-376.50L377.70,180.92" fill="none" stroke="#000000"/>
    <path d="M-807.07,-367.91L377.70,172.85" fill="none" stroke="#000000"/>
    <path d="M-805.15,-359.33L377.70,164.79" fill="none" stroke="#000000"/>
    <path d="M-803.12,-350.88L377.70,156.73" fill="none" stroke="#000000"/>
    <path d="M-793.94,-352.33L377.70,148.66" fill="none" stroke="#000000"/>
    <path d="M-750.63,-274.02L377.70,140.60" fill="none" stroke="#000000"/>
    <path d="M-754.43,-280.39L377.70,132.53" fill="none" stroke="#000000"/>
    <path d="M-753.13,-289.09L468.87,232.41" fill="none" stroke="#000000"/>
    <path d="M-751.84,-297.79L471.56,224.80" fill="none" stroke="#000000"/>
    <path d="M-750.54,-306.49L474.24,217.20" fill="none" stroke="#000000"/>
    <path d="M-749.25,-315.20L476.93,209.60" fill="none" stroke="#000000"/>
    <path d="M-747.95,-323.90L479.61,201.99" fill="none" stroke="#000000"/>
    <path d="M-746.65,-332.60L482.30,194.39" fill="none" stroke="#000000"/>
    <path d="M-745.36,-341.30L484.99,186.79" fill="none" stroke="#000000"/>
    <path d="M-744.06,-350.00L487.67,179.18" fill="none" stroke="#000000"/>
    <path d="M-742.76,-358.70L490.36,171.58" fill="none" stroke="#000000"/>
    <path d="M-741.47,-367.40L493.04,163.97" fill="none" stroke="#000000"/>
    <path d="M-740.17,-376.11L495.73,156.37" fill="none" stroke="#000000"/>
    <path d="M-738.88,-384.81L498.41,148.77" fill="none" stroke="#000000"/>
    <path d="M-737.58,-393.51L501.10,141.16" fill="none" stroke="#000000"/>
    <path d="M-736.28,-402.21L503.78,133.56" fill="none" stroke="#000000"/>
    <path d="M-734.99,-410.91L508.45,127.71" fill="none" stroke="#000000"/>
    <path d="M-728.17,-413.67L516.52,127.70" fill="none" stroke="#000000"/>
    <path d="M-719.46,-412.60L524.18,129.01" fill="none" stroke="#000000"/>
    <path d="M-710.55,-409.84L522.38,136.67" fill="none" stroke="#000000"/>
    <path d="M-710.06,-402.63L519.70,144.27" fill="none" stroke="#000000"/>
    <path d="M-711.75,-393.99L517.02,151.87" fill="none" stroke="#000000"/>
    <path d="M-713.44,-385.36L514.33,159.48" fill="none" stroke="#000000"/>
    <path d="M-715.13,-376.73L511.65,167.08" fill="none" stroke="#000000"/>
    <path d="M-716.82,-368.09L508.97,174.69" fill="none" stroke="#000000"/>
    <path d="M-718.51,-359.46L506.28,182.29" fill="none" stroke="#000000"/>
    <path d="M-720.20,-350.82L503.60,189.90" fill="none" stroke="#000000"/>
    <path d="M-721.89,-342.19L500.92,197.50" fill="none" stroke="#000000"/>
    <path d="M-723.58,-333.56L498.23,205.11" fill="none" stroke="#000000"/>
    <path d="M-725.27,-324.92L495.55,212.71" fill="none" stroke="#000000"/>
    <path d="M-726.96,-316.29L492.87,220.32" fill="none" stroke="#000000"/>
    <path d="M-728.65,-307.66L490.18,227.92" fill="none" stroke="#000000"/>
    <path d="M-730.34,-299.02L487.46,235.60" fill="none" stroke="#000000"/>
    <path d="M-732.03,-290.39L480.96,239.00" fill="none" stroke="#000000"/>
    <path d="M-733.72,-281.76L472.90,239.00" fill="none" stroke="#000000"/>
    <path d="M-735.41,-273.12L533.25,128.29" fill="none" stroke="#000000"/>
    <path d="M-742.78,-271.56L541.20,127.70" fill="none" stroke="#000000"/>
    <path d="M-621.03,-322.65L549.26,127.70" fill="none" stroke="#000000"/>
    <path d="M-620.89,-313.35L557.32,127.70" fill="none" stroke="#000000"/>
    <path d="M-622.04,-304.22L565.23,128.17" fill="none" stroke="#000000"/>
    <path d="M-624.59,-296.55L566.25,136.00" fill="none" stroke="#000000"/>
    <path d="M-629.83,-290.08L566.25,144.06" fill="none" stroke="#000000"/>
    <path d="M-638.21,-287.54L566.25,152.13" fill="none" stroke="#000000"/>
    <path d="M-645.30,-288.35L566.25,160.19" fill="none" stroke="#000000"/>
    <path d="M-652.82,-291.34L566.25,168.26" fill="none" stroke="#000000"/>
    <path d="M-661.23,-296.50L566.25,176.32" fill="none" stroke="#000000"/>
    <path d="M-668.72,-296.40L566.25,184.38" fill="none" stroke="#000000"/>
    <path d="M-675.19,-290.42L566.25,192.45" fill="none" stroke="#000000"/>
    <path d="M-682.89,-287.67L566.25,200.51" fill="none" stroke="#000000"/>
    <path d="M-689.81,-291.70L566.25,208.58" fill="none" stroke="#000000"/>
    <path d="M-695.18,-298.96L569.13,214.40" fill="none" stroke="#000000"/>
    <path d="M-698.97,-307.34L577.19,214.40" fill="none" stroke="#000000"/>
    <path d="M-697.17,-314.88L585.26,214.40" fill="none" stroke="#000000"/>
    <path d="M-691.62,-321.04L593.32,214.40" fill="none" stroke="#000000"/>
    <path d="M-683.49,-322.43L601.38,214.40" fill="none" stroke="#000000"/>
    <path d="M-684.98,-331.63L609.45,214.40" fill="none" stroke="#000000"/>
    <path d="M-686.22,-340.26L616.56,216.42" fill="none" stroke="#000000"/>
    <path d="M-687.21,-348.34L616.65,224.51" fill="none" stroke="#000000"/>
    <path d="M-688.10,-356.64L616.65,232.57" fill="none" stroke="#000000"/>
    <path d="M-688.96,-365.54L613.72,238.95" fill="none" stroke="#000000"/>
    <path d="M-689.78,-374.81L605.56,239" fill="none" stroke="#000000"/>
    <path d="M-690.59,-383.52L597.50,239.00" fill="none" stroke="#000000"/>
    <path d="M-691.69,-392.44L589.43,239" fill="none" stroke="#000000"/>
    <path d="M-686.29,-398.35L581.37,239.00" fill="none" stroke="#000000"/>
    <path d="M-678.14,-401.78L573.30,239" fill="none" stroke="#000000"/>
    <path d="M-669.50,-403.20L565.24,239" fill="none" stroke="#000000"/>
    <path d="M-660.77,-402.29L557.18,239" fill="none" stroke="#000000"/>
    <path d="M-656.44,-396.59L549.11,239.00" fill="none" stroke="#000000"/>
    <path d="M-657.29,-387.83L541.05,239.00" fill="none" stroke="#000000"/>
    <path d="M-658.14,-379.08L533.15,238.15" fill="none" stroke="#000000"/>
    <path d="M-658.99,-370.32L532.20,230.34" fill="none" stroke="#000000"/>
    <path d="M-659.84,-361.57L532.20,222.28" fill="none" stroke="#000000"/>
    <path d="M-660.69,-352.81L532.20,214.21" fill="none" stroke="#000000"/>
    <path d="M-661.55,-344.05L532.20,206.15" fill="none" stroke="#000000"/>
    <path d="M-662.40,-335.30L532.20,198.09" fill="none" stroke="#000000"/>
    <path d="M-663.25,-326.54L532.20,190.02" fill="none" stroke="#000000"/>
    <path d="M-662.17,-319.33L532.20,181.96" fill="none" stroke="#000000"/>
    <path d="M-653.52,-317.69L532.20,173.89" fill="none" stroke="#000000"/>
    <path d="M-644.88,-316.05L532.20,165.83" fill="none" stroke="#000000"/>
    <path d="M-641.57,-323.46L532.20,157.76" fill="none" stroke="#000000"/>
    <path d="M-638.82,-331.81L532.20,149.70" fill="none" stroke="#000000"/>
    <path d="M-634.15,-337.12L532.20,141.64" fill="none" stroke="#000000"/>
    <path d="M-625.43,-335.98L532.20,133.57" fill="none" stroke="#000000"/>
    <path d="M-621.83,-329.71L648.40,231.99" fill="none" stroke="#000000"/>
    <path d="M-529.70,-371.39L642.11,227.07" fill="none" stroke="#000000"/>
    <path d="M-529.76,-363.27L636.77,221.17" fill="none" stroke="#000000"/>
    <path d="M-530.17,-354.57L632.39,214.27" fill="none" stroke="#000000"/>
    <path d="M-530.88,-344.48L629.31,207.31" fill="none" stroke="#000000"/>
    <path d="M-531.67,-335.50L627.15,199.80" fill="none" stroke="#000000"/>
    <path d="M-532.58,-326.82L625.88,191.70" fill="none" stroke="#000000"/>
    <path d="M-533.72,-317.51L625.50,183.01" fill="none" stroke="#000000"/>
    <path d="M-535.21,-307.89L626.01,174.44" fill="none" stroke="#000000"/>
    <path d="M-537.08,-301.33L627.41,166.43" fill="none" stroke="#000000"/>
    <path d="M-543.70,-296.15L629.69,158.99" fill="none" stroke="#000000"/>
    <path d="M-552.34,-291.73L632.95,151.97" fill="none" stroke="#000000"/>
    <path d="M-560.19,-288.63L637.44,145.17" fill="none" stroke="#000000"/>
    <path d="M-568.43,-287.62L642.85,139.34" fill="none" stroke="#000000"/>
    <path d="M-577.12,-289.08L649.19,134.48" fill="none" stroke="#000000"/>
    <path d="M-586.10,-291.39L656.07,130.79" fill="none" stroke="#000000"/>
    <path d="M-594.30,-294.24L663.44,128.20" fill="none" stroke="#000000"/>
    <path d="M-602.71,-298.45L671.39,126.68" fill="none" stroke="#000000"/>
    <path d="M-605.34,-304.41L679.94,126.20" fill="none" stroke="#000000"/>
    <path d="M-606.36,-312.14L688.41,126.79" fill="none" stroke="#000000"/>
    <path d="M-607.35,-320.93L696.30,128.45" fill="none" stroke="#000000"/>
    <path d="M-608.33,-330.76L703.60,131.17" fill="none" stroke="#000000"/>
    <path d="M-609.30,-341.79L710.43,135.05" fill="none" stroke="#000000"/>
    <path d="M-610.09,-352.16L716.63,140.04" fill="none" stroke="#000000"/>
    <path d="M-610.61,-360.93L721.91,146.01" fill="none" stroke="#000000"/>
    <path d="M-610.86,-368.09L726.28,152.96" fill="none" stroke="#000000"/>
    <path d="M-610.79,-376.08L729.36,159.95" fill="none" stroke="#000000"/>
    <path d="M-609.90,-384.93L731.53,167.47" fill="none" stroke="#000000"/>
    <path d="M-606.05,-391.07L732.81,175.55" fill="none" stroke="#000000"/>
    <path d="M-597.75,-396.06L733.20,184.20" fill="none" stroke="#000000"/>
    <path d="M-589.70,-399.56L732.70,192.78" fill="none" stroke="#000000"/>
    <path d="M-580.90,-402.62L731.30,200.78" fill="none" stroke="#000000"/>
    <path d="M-572.29,-404.69L729.01,208.22" fill="none" stroke="#000000"/>
    <path d="M-565.39,-403.83L725.74,215.25" fill="none" stroke="#000000"/>
    <path d="M-555.74,-401.09L721.23,222.04" fill="none" stroke="#000000"/>
    <path d="M-547.52,-397.98L715.78,227.83" fill="none" stroke="#000000"/>
    <path d="M-538.96,-393.86L709.38,232.61" fill="none" stroke="#000000"/>
    <path d="M-531.98,-388.89L702.49,236.18" fill="none" stroke="#000000"/>
    <path d="M-530.14,-380.58L695.09,238.66" fill="none" stroke="#000000"/>
    <path d="M-582.17,-340.47L687.07,240.09" fill="none" stroke="#000000"/>
    <path d="M-582.01,-330.60L678.46,240.49" fill="none" stroke="#000000"/>
    <path d="M-581.70,-322.12L669.98,239.86" fill="none" stroke="#000000"/>
    <path d="M-581.26,-315.03L662.09,238.20" fill="none" stroke="#000000"/>
    <path d="M-575.18,-310.65L654.82,235.52" fill="none" stroke="#000000"/>
    <path d="M-566.46,-307.30L692.06,211.71" fill="none" stroke="#000000"/>
    <path d="M-559.73,-310.44L695.53,204.12" fill="none" stroke="#000000"/>
    <path d="M-559.24,-317.62L696.82,197.17" fill="none" stroke="#000000"/>
    <path d="M-559.00,-327.06L697.43,188.79" fill="none" stroke="#000000"/>
    <path d="M-558.98,-337.07L697.40,178.68" fill="none" stroke="#000000"/>
    <path d="M-559.11,-345.87L696.66,169.54" fill="none" stroke="#000000"/>
    <path d="M-559.38,-354.67L695.17,162.23" fill="none" stroke="#000000"/>
    <path d="M-559.85,-364.34L692.74,156.39" fill="none" stroke="#000000"/>
    <path d="M-560.43,-372.27L687.18,151.01" fill="none" stroke="#000000"/>
    <path d="M-568.25,-375.88L679.18,149.30" fill="none" stroke="#000000"/>
    <path d="M-576.32,-379.27L671.30,151.22" fill="none" stroke="#000000"/>
    <path d="M-581.54,-374.35L665.84,156.74" fill="none" stroke="#000000"/>
    <path d="M-581.91,-366.74L663.48,162.53" fill="none" stroke="#000000"/>
    <path d="M-582.13,-357.64L662.01,169.91" fill="none" stroke="#000000"/>
    <path d="M-472.23,-318.06L661.28,179.13" fill="none" stroke="#000000"/>
    <path d="M-475.70,-323.81L661.29,189.19" fill="none" stroke="#000000"/>
    <path d="M-484.02,-327.27L661.92,197.51" fill="none" stroke="#000000"/>
    <path d="M-492.61,-331.52L663.29,204.52" fill="none" stroke="#000000"/>
    <path d="M-500.20,-335.89L666.86,211.94" fill="none" stroke="#000000"/>
    <path d="M-508.24,-341.43L672.72,216.06" fill="none" stroke="#000000"/>
    <path d="M-513.55,-347.08L681.30,217.04" fill="none" stroke="#000000"/>
    <path d="M-514.95,-355.65L688.85,214.72" fill="none" stroke="#000000"/>
    <path d="M-515.60,-363.56L798.81,149.91" fill="none" stroke="#000000"/>
    <path d="M-516.26,-373.60L789.39,149.54" fill="none" stroke="#000000"/>
    <path d="M-516.87,-381.99L781.76,151.17" fill="none" stroke="#000000"/>
    <path d="M-511.51,-389.34L777.01,156.80" fill="none" stroke="#000000"/>
    <path d="M-505.44,-395.29L780.27,162.33" fill="none" stroke="#000000"/>
    <path d="M-498.51,-400.15L789.06,165.39" fill="none" stroke="#000000"/>
    <path d="M-490.49,-404.29L796.86,167.41" fill="none" stroke="#000000"/>
    <path d="M-483.86,-402.45L804.67,169.43" fill="none" stroke="#000000"/>
    <path d="M-474.49,-397.72L812.62,171.50" fill="none" stroke="#000000"/>
    <path d="M-465.98,-396.87L820.76,174.50" fill="none" stroke="#000000"/>
    <path d="M-457.19,-397.29L827.41,178.65" fill="none" stroke="#000000"/>
    <path d="M-448.40,-397.70L832.62,184.01" fill="none" stroke="#000000"/>
    <path d="M-447.14,-389.00L836.51,190.83" fill="none" stroke="#000000"/>
    <path d="M-447.93,-380.13L838.58,198.54" fill="none" stroke="#000000"/>
    <path d="M-450.95,-371.68L838.83,207.02" fill="none" stroke="#000000"/>
    <path d="M-456.17,-364.39L837.27,214.97" fill="none" stroke="#000000"/>
    <path d="M-463.29,-364.48L833.91,222.05" fill="none" stroke="#000000"/>
    <path d="M-471.50,-368.16L829.01,227.99" fill="none" stroke="#000000"/>
    <path d="M-479.27,-372.87L822.69,232.82" fill="none" stroke="#000000"/>
    <path d="M-486.09,-378.36L815.20,236.47" fill="none" stroke="#000000"/>
    <path d="M-489.15,-372.85L807.97,238.68" fill="none" stroke="#000000"/>
    <path d="M-490.72,-364.19L800.04,240.02" fill="none" stroke="#000000"/>
    <path d="M-484.94,-359.87L791.39,240.50" fill="none" stroke="#000000"/>
    <path d="M-476.70,-354.23L782.91,240.16" fill="none" stroke="#000000"/>
    <path d="M-469.67,-349.06L774.84,239.07" fill="none" stroke="#000000"/>
    <path d="M-462.76,-343.55L767.17,237.22" fill="none" stroke="#000000"/>
    <path d="M-455.49,-337.16L759.65,234.52" fill="none" stroke="#000000"/>
    <path d="M-449.67,-330.87L751.75,230.37" fill="none" stroke="#000000"/>
    <path d="M-447.92,-323.77L745.71,225.46" fill="none" stroke="#000000"/>
    <path d="M-449.34,-314.66L741.48,219.37" fill="none" stroke="#000000"/>
    <path d="M-451.53,-305.69L745.91,213.71" fill="none" stroke="#000000"/>
    <path d="M-455.86,-298.54L752.55,209.13" fill="none" stroke="#000000"/>
    <path d="M-462.41,-293.05L759.36,204.57" fill="none" stroke="#000000"/>
    <path d="M-469.91,-288.53L766.05,207.77" fill="none" stroke="#000000"/>
    <path d="M-476.34,-287.95L772.00,213.22" fill="none" stroke="#000000"/>
    <path d="M-485.00,-288.91L778.33,216.20" fill="none" stroke="#000000"/>
    <path d="M-497.89,-290.34L786.62,217.37" fill="none" stroke="#000000"/>
    <path d="M-508.21,-291.56L795.70,216.86" fill="none" stroke="#000000"/>
    <path d="M-511.41,-295.63L802.80,214.48" fill="none" stroke="#000000"/>
    <path d="M-513.91,-303.98L806.52,208.11" fill="none" stroke="#000000"/>
    <path d="M-513.83,-312.64L801.99,202.30" fill="none" stroke="#000000"/>
    <path d="M-510.82,-320.51L793.94,199.83" fill="none" stroke="#000000"/>
    <path d="M-503.21,-319.28L786.11,197.92" fill="none" stroke="#000000"/>
    <path d="M-495.30,-316.75L778.27,196.02" fill="none" stroke="#000000"/>
    <path d="M-487.09,-312.91L770.18,193.86" fill="none" stroke="#000000"/>
    <path d="M-478.58,-307.76L762.65,190.57" fill="none" stroke="#000000"/>
    <path d="M-472.63,-312.39L756.27,186.09" fill="none" stroke="#000000"/>
    <path d="M-742.07,-130.89L750.90,180.25" fill="none" stroke="#000000"/>
    <path d="M-744.53,-122.26L747.02,173.26" fill="none" stroke="#000000"/>
    <path d="M-748.62,-114.40L745.12,165.58" fill="none" stroke="#000000"/>
    <path d="M-754.76,-108.41L745.19,157.45" fill="none" stroke="#000000"/>
    <path d="M-763.20,-106.42L747.28,149.80" fill="none" stroke="#000000"/>
    <path d="M-771.80,-107.94L751.33,142.82" fill="none" stroke="#000000"/>
    <path d="M-777.03,-110.95L756.65,137.21" fill="none" stroke="#000000"/>
    <path d="M-781.18,-116.52L763.40,132.61" fill="none" stroke="#000000"/>
    <path d="M-784.42,-124.70L770.73,129.36" fill="none" stroke="#000000"/>
    <path d="M-786.74,-135.50L778.25,127.36" fill="none" stroke="#000000"/>
    <path d="M-791.50,-143.17L786.46,126.34" fill="none" stroke="#000000"/>
    <path d="M-800.22,-144.34L795.05,126.30" fill="none" stroke="#000000"/>
    <path d="M-807.34,-144.53L803.19,127.15" fill="none" stroke="#000000"/>
    <path d="M-805.15,-137.04L810.94,128.88" fill="none" stroke="#000000"/>
    <path d="M-803.13,-126.73L818.74,131.69" fill="none" stroke="#000000"/>
    <path d="M-801.76,-117.64L826.18,135.84" fill="none" stroke="#000000"/>
    <path d="M-801.21,-109.75L831.66,140.89" fill="none" stroke="#000000"/>
    <path d="M-809.41,-106.79L832.16,147.36" fill="none" stroke="#000000"/>
    <path d="M-818.27,-106.67L825.63,152.10" fill="none" stroke="#000000"/>
    <path d="M-826.92,-108.99L819.10,156.83" fill="none" stroke="#000000"/>
    <path d="M-832.41,-114.75L812.40,157.98" fill="none" stroke="#000000"/>
    <path d="M-830.39,-123.65L806.05,152.58" fill="none" stroke="#000000"/>
    <path d="M-828.15,-131.29L259.43,412.88" fill="none" stroke="#000000"/>
    <path d="M-827.45,-137.76L251.36,412.88" fill="none" stroke="#000000"/>
    <path d="M-829.20,-145.69L243.30,412.88" fill="none" stroke="#000000"/>
    <path d="M-830.96,-157.02L235.23,412.88" fill="none" stroke="#000000"/>
    <path d="M-832.10,-165.50L227.87,411.16" fill="none" stroke="#000000"/>
    <path d="M-833.16,-174.19L224.99,403.52" fill="none" stroke="#000000"/>
    <path d="M-834.15,-183.09L222.23,395.94" fill="none" stroke="#000000"/>
    <path d="M-835.21,-193.65L219.47,388.36" fill="none" stroke="#000000"/>
    <path d="M-836.13,-204.04L216.70,380.79" fill="none" stroke="#000000"/>
    <path d="M-836.49,-210.40L213.94,373.21" fill="none" stroke="#000000"/>
    <path d="M-832.09,-216.41L208.39,368.63" fill="none" stroke="#000000"/>
    <path d="M-824.16,-220.69L200.42,369.04" fill="none" stroke="#000000"/>
    <path d="M-815.60,-222.14L199.80,376.92" fill="none" stroke="#000000"/>
    <path d="M-806.98,-220.43L199.80,384.99" fill="none" stroke="#000000"/>
    <path d="M-804.28,-213.89L199.80,393.05" fill="none" stroke="#000000"/>
    <path d="M-805.93,-205.25L199.80,401.11" fill="none" stroke="#000000"/>
    <path d="M-807.59,-196.61L199.76,409.33" fill="none" stroke="#000000"/>
    <path d="M-809.24,-187.97L193.79,412.88" fill="none" stroke="#000000"/>
    <path d="M-808.65,-180.45L185.72,412.88" fill="none" stroke="#000000"/>
    <path d="M-804.71,-187.93L177.66,412.88" fill="none" stroke="#000000"/>
    <path d="M-800.94,-195.88L169.58,412.88" fill="none" stroke="#000000"/>
    <path d="M-797.16,-203.82L165.75,407.34" fill="none" stroke="#000000"/>
    <path d="M-793.39,-211.77L165.75,399.27" fill="none" stroke="#000000"/>
    <path d="M-789.61,-219.72L165.75,391.21" fill="none" stroke="#000000"/>
    <path d="M-782.57,-223.34L165.75,383.14" fill="none" stroke="#000000"/>
    <path d="M-774.16,-223.13L165.75,375.08" fill="none" stroke="#000000"/>
    <path d="M-765.54,-220.67L165.75,367.02" fill="none" stroke="#000000"/>
    <path d="M-757.43,-216.73L165.75,358.95" fill="none" stroke="#000000"/>
    <path d="M-751.92,-210.99L165.75,350.89" fill="none" stroke="#000000"/>
    <path d="M-752.17,-202.66L165.75,342.82" fill="none" stroke="#000000"/>
    <path d="M-752.91,-193.70L165.75,334.76" fill="none" stroke="#000000"/>
    <path d="M-754.10,-184.37L165.75,326.69" fill="none" stroke="#000000"/>
    <path d="M-755.67,-175.54L165.75,318.63" fill="none" stroke="#000000"/>
    <path d="M-757.65,-167.08L165.75,310.57" fill="none" stroke="#000000"/>
    <path d="M-760.87,-159.47L166.44,302.46" fill="none" stroke="#000000"/>
    <path d="M-766.68,-153.00L174.07,301.58" fill="none" stroke="#000000"/>
    <path d="M-768.42,-145.95L182.13,301.58" fill="none" stroke="#000000"/>
    <path d="M-763.63,-138.73L190.20,301.58" fill="none" stroke="#000000"/>
    <path d="M-757.55,-136.62L198.26,301.58" fill="none" stroke="#000000"/>
    <path d="M-749.72,-141.17L206.33,301.58" fill="none" stroke="#000000"/>
    <path d="M-743.17,-135.31L214.39,301.58" fill="none" stroke="#000000"/>
    <path d="M-801.32,-167.25L223.22,301.67" fill="none" stroke="#000000"/>
    <path d="M-805.34,-160.16L232.18,302.51" fill="none" stroke="#000000"/>
    <path d="M-801.04,-158.49L240.12,304.22" fill="none" stroke="#000000"/>
    <path d="M-792.26,-159.10L247.04,306.80" fill="none" stroke="#000000"/>
    <path d="M-783.48,-159.71L253.07,310.35" fill="none" stroke="#000000"/>
    <path d="M-781.75,-167.81L258.89,315.92" fill="none" stroke="#000000"/>
    <path d="M-781.06,-176.57L262.65,322.66" fill="none" stroke="#000000"/>
    <path d="M-780.84,-185.39L264.34,330.58" fill="none" stroke="#000000"/>
    <path d="M-782.04,-193.44L264.02,338.99" fill="none" stroke="#000000"/>
    <path d="M-787.59,-189.48L261.83,346.63" fill="none" stroke="#000000"/>
    <path d="M-792.22,-182.15L257.72,353.57" fill="none" stroke="#000000"/>
    <path d="M-705.08,-129.30L252.02,359.25" fill="none" stroke="#000000"/>
    <path d="M-697.46,-132.51L245.09,363.12" fill="none" stroke="#000000"/>
    <path d="M-689.01,-136.81L246.05,370.19" fill="none" stroke="#000000"/>
    <path d="M-681.29,-140.31L249.36,377.55" fill="none" stroke="#000000"/>
    <path d="M-676.70,-132.80L252.67,384.90" fill="none" stroke="#000000"/>
    <path d="M-678.39,-126.44L255.98,392.25" fill="none" stroke="#000000"/>
    <path d="M-685.43,-119.93L259.29,399.61" fill="none" stroke="#000000"/>
    <path d="M-692.48,-114.65L262.60,406.96" fill="none" stroke="#000000"/>
    <path d="M-700.13,-110.13L228.69,339.19" fill="none" stroke="#000000"/>
    <path d="M-708.76,-106.92L228.41,330.86" fill="none" stroke="#000000"/>
    <path d="M-716.82,-107.27L223.22,325.32" fill="none" stroke="#000000"/>
    <path d="M-723.69,-113.12L215.31,323.78" fill="none" stroke="#000000"/>
    <path d="M-730.36,-118.89L207.24,323.78" fill="none" stroke="#000000"/>
    <path d="M-732.81,-126.67L199.99,325.35" fill="none" stroke="#000000"/>
    <path d="M-732.37,-135.37L199.80,333.56" fill="none" stroke="#000000"/>
    <path d="M-732.72,-143.91L199.80,341.63" fill="none" stroke="#000000"/>
    <path d="M-733.51,-152.91L204.18,346.28" fill="none" stroke="#000000"/>
    <path d="M-734.88,-163.30L212.24,346.28" fill="none" stroke="#000000"/>
    <path d="M-736.41,-171.20L220.65,346.00" fill="none" stroke="#000000"/>
    <path d="M-737.43,-178.44L308.27,391.96" fill="none" stroke="#000000"/>
    <path d="M-731.35,-185.73L315.71,394.45" fill="none" stroke="#000000"/>
    <path d="M-724.50,-190.86L323.89,393.64" fill="none" stroke="#000000"/>
    <path d="M-716.81,-194.77L330.36,389.95" fill="none" stroke="#000000"/>
    <path d="M-707.82,-197.66L337.28,385.86" fill="none" stroke="#000000"/>
    <path d="M-700.01,-195.85L344.89,388.91" fill="none" stroke="#000000"/>
    <path d="M-691.72,-190.58L352.32,392.09" fill="none" stroke="#000000"/>
    <path d="M-685.07,-187.27L348.80,399.41" fill="none" stroke="#000000"/>
    <path d="M-676.46,-184.01L343.00,405.39" fill="none" stroke="#000000"/>
    <path d="M-673.36,-176.40L337.03,409.61" fill="none" stroke="#000000"/>
    <path d="M-673.72,-166.91L330.48,412.30" fill="none" stroke="#000000"/>
    <path d="M-676.71,-161.44L322.72,413.89" fill="none" stroke="#000000"/>
    <path d="M-683.54,-153.76L313.79,414.38" fill="none" stroke="#000000"/>
    <path d="M-689.46,-147.44L305.55,413.64" fill="none" stroke="#000000"/>
    <path d="M-696.08,-140.61L297.88,411.58" fill="none" stroke="#000000"/>
    <path d="M-702.59,-134.18L290.68,408.13" fill="none" stroke="#000000"/>
    <path d="M-707.21,-129.13L284.22,403.31" fill="none" stroke="#000000"/>
    <path d="M-707.69,-164.23L278.96,397.33" fill="none" stroke="#000000"/>
    <path d="M-708.17,-153.34L275.07,390.41" fill="none" stroke="#000000"/>
    <path d="M-708.81,-143.70L272.74,382.84" fill="none" stroke="#000000"/>
    <path d="M-707.73,-141.37L271.95,374.58" fill="none" stroke="#000000"/>
    <path d="M-702.49,-149.11L272.63,366.23" fill="none" stroke="#000000"/>
    <path d="M-698.00,-156.10L274.69,358.55" fill="none" stroke="#000000"/>
    <path d="M-693.88,-163.87L278.17,351.50" fill="none" stroke="#000000"/>
    <path d="M-697.90,-167.01L283.06,345.05" fill="none" stroke="#000000"/>
    <path d="M-587.50,-186.72L289.03,339.78" fill="none" stroke="#000000"/>
    <path d="M-589.53,-178.29L296.03,335.70" fill="none" stroke="#000000"/>
    <path d="M-592.65,-170.12L303.57,333.07" fill="none" stroke="#000000"/>
    <path d="M-596.53,-162.44L311.53,331.93" fill="none" stroke="#000000"/>
    <path d="M-596.89,-153.75L319.93,332.26" fill="none" stroke="#000000"/>
    <path d="M-595.38,-145.08L327.76,333.98" fill="none" stroke="#000000"/>
    <path d="M-593.87,-136.41L334.89,337.07" fill="none" stroke="#000000"/>
    <path d="M-592.36,-127.75L341.37,341.70" fill="none" stroke="#000000"/>
    <path d="M-590.85,-119.08L346.68,347.69" fill="none" stroke="#000000"/>
    <path d="M-589.34,-110.41L350.59,354.60" fill="none" stroke="#000000"/>
    <path d="M-588.51,-101.84L353.04,361.91" fill="none" stroke="#000000"/>
    <path d="M-592.21,-93.95L354.28,370.06" fill="none" stroke="#000000"/>
    <path d="M-597.71,-87.04L353.56,378.06" fill="none" stroke="#000000"/>
    <path d="M-604.50,-81.32L345.36,378.53" fill="none" stroke="#000000"/>
    <path d="M-612.16,-76.97L337.30,378.53" fill="none" stroke="#000000"/>
    <path d="M-620.51,-75.21L329.24,378.53" fill="none" stroke="#000000"/>
    <path d="M-629.12,-76.77L321.17,378.53" fill="none" stroke="#000000"/>
    <path d="M-637.55,-80.14L313.11,378.53" fill="none" stroke="#000000"/>
    <path d="M-645.37,-85.09L305.03,378.53" fill="none" stroke="#000000"/>
    <path d="M-647.36,-92.55L303.45,385.57" fill="none" stroke="#000000"/>
    <path d="M-644.83,-99.83L323.98,363.00" fill="none" stroke="#000000"/>
    <path d="M-636.81,-98.41L324.32,356.30" fill="none" stroke="#000000"/>
    <path d="M-626.45,-97.10L319.02,350.23" fill="none" stroke="#000000"/>
    <path d="M-617.83,-96.44L311.03,350.07" fill="none" stroke="#000000"/>
    <path d="M-615.82,-102.90L305.09,354.82" fill="none" stroke="#000000"/>
    <path d="M-615.89,-109.65L303.30,362.84" fill="none" stroke="#000000"/>
    <path d="M-616.16,-118.81L311.29,362.99" fill="none" stroke="#000000"/>
    <path d="M-616.61,-130.08L319.35,363.05" fill="none" stroke="#000000"/>
    <path d="M-616.93,-139.72L452.55,336.94" fill="none" stroke="#000000"/>
    <path d="M-617.02,-146.90L452.55,345.01" fill="none" stroke="#000000"/>
    <path d="M-620.49,-141.22L448.13,349.58" fill="none" stroke="#000000"/>
    <path d="M-623.90,-133.03L439.95,349.08" fill="none" stroke="#000000"/>
    <path d="M-627.56,-125.34L439.79,356.41" fill="none" stroke="#000000"/>
    <path d="M-632.49,-116.63L438.37,364.15" fill="none" stroke="#000000"/>
    <path d="M-637.50,-110.05L434.03,370.75" fill="none" stroke="#000000"/>
    <path d="M-644.32,-106.51L427.93,375.49" fill="none" stroke="#000000"/>
    <path d="M-652.02,-110.42L420.31,378.86" fill="none" stroke="#000000"/>
    <path d="M-659.61,-115.26L412.94,380.64" fill="none" stroke="#000000"/>
    <path d="M-661.39,-123.28L404.57,381.47" fill="none" stroke="#000000"/>
    <path d="M-661.09,-132.04L393.57,381.97" fill="none" stroke="#000000"/>
    <path d="M-661.29,-140.30L387.62,384.45" fill="none" stroke="#000000"/>
    <path d="M-661.89,-149.25L391.14,388.39" fill="none" stroke="#000000"/>
    <path d="M-662.91,-159.02L399.61,389.07" fill="none" stroke="#000000"/>
    <path d="M-664.37,-167.99L407.66,389.54" fill="none" stroke="#000000"/>
    <path d="M-666.33,-175.88L415.71,390.02" fill="none" stroke="#000000"/>
    <path d="M-664.34,-183.68L425.07,391.04" fill="none" stroke="#000000"/>
    <path d="M-657.95,-189.72L433.06,393.03" fill="none" stroke="#000000"/>
    <path d="M-649.99,-194.24L439.39,395.99" fill="none" stroke="#000000"/>
    <path d="M-641.61,-197.06L445.15,401.14" fill="none" stroke="#000000"/>
    <path d="M-634.28,-195.23L448.37,408.18" fill="none" stroke="#000000"/>
    <path d="M-628.42,-188.77L448.46,416.32" fill="none" stroke="#000000"/>
    <path d="M-623.87,-182.01L445.56,423.65" fill="none" stroke="#000000"/>
    <path d="M-620.11,-177.34L440.47,429.28" fill="none" stroke="#000000"/>
    <path d="M-620.40,-186.08L433.72,433.48" fill="none" stroke="#000000"/>
    <path d="M-619.81,-194.55L425.94,436.40" fill="none" stroke="#000000"/>
    <path d="M-610.87,-196.14L418.64,438.01" fill="none" stroke="#000000"/>
    <path d="M-601.66,-195.65L410.43,438.91" fill="none" stroke="#000000"/>
    <path d="M-593.88,-192.78L401.06,439.12" fill="none" stroke="#000000"/>
    <path d="M-627.83,-145.49L391.23,438.79" fill="none" stroke="#000000"/>
    <path d="M-623.12,-153.86L382.65,438.02" fill="none" stroke="#000000"/>
    <path d="M-620.02,-161.46L375.32,436.79" fill="none" stroke="#000000"/>
    <path d="M-623.31,-166.52L369.25,435.10" fill="none" stroke="#000000"/>
    <path d="M-632.67,-168.51L361.80,431.19" fill="none" stroke="#000000"/>
    <path d="M-635.69,-163.46L357.41,425.21" fill="none" stroke="#000000"/>
    <path d="M-635.87,-155.13L357.24,417.59" fill="none" stroke="#000000"/>
    <path d="M-636.69,-146.55L362.39,412.20" fill="none" stroke="#000000"/>
    <path d="M-638.17,-137.50L370.02,409.04" fill="none" stroke="#000000"/>
    <path d="M-634.90,-135.07L366.99,404.50" fill="none" stroke="#000000"/>
    <path d="M-629.76,-142.30L362.10,398.58" fill="none" stroke="#000000"/>
    <path d="M-551.18,-149.71L361.69,392.15" fill="none" stroke="#000000"/>
    <path d="M-552.50,-141.02L365.18,386.69" fill="none" stroke="#000000"/>
    <path d="M-550.71,-135.46L372.46,381.61" fill="none" stroke="#000000"/>
    <path d="M-545.61,-142.78L377.07,376.86" fill="none" stroke="#000000"/>
    <path d="M-541.39,-150.67L370.05,372.51" fill="none" stroke="#000000"/>
    <path d="M-537.38,-159.44L365.06,366.63" fill="none" stroke="#000000"/>
    <path d="M-535.65,-168.50L362.66,359.09" fill="none" stroke="#000000"/>
    <path d="M-536.67,-181.07L363.33,351.12" fill="none" stroke="#000000"/>
    <path d="M-537.29,-189.55L366.89,344.33" fill="none" stroke="#000000"/>
    <path d="M-537.52,-193.93L373.23,338.81" fill="none" stroke="#000000"/>
    <path d="M-529.88,-195.97L379.31,335.80" fill="none" stroke="#000000"/>
    <path d="M-520.67,-195.98L386.59,333.69" fill="none" stroke="#000000"/>
    <path d="M-512.56,-193.75L395.08,332.49" fill="none" stroke="#000000"/>
    <path d="M-505.58,-188.62L404.55,332.20" fill="none" stroke="#000000"/>
    <path d="M-504.62,-181.91L412.79,332.93" fill="none" stroke="#000000"/>
    <path d="M-506.21,-171.58L420.56,334.97" fill="none" stroke="#000000"/>
    <path d="M-507.84,-163.22L427.54,338.51" fill="none" stroke="#000000"/>
    <path d="M-509.83,-154.54L433.89,337.01" fill="none" stroke="#000000"/>
    <path d="M-512.26,-145.23L440.17,331.90" fill="none" stroke="#000000"/>
    <path d="M-514.95,-136.66L448.05,328.71" fill="none" stroke="#000000"/>
    <path d="M-515.49,-131.79L410.17,364.30" fill="none" stroke="#000000"/>
    <path d="M-507.73,-135.92L412.64,356.79" fill="none" stroke="#000000"/>
    <path d="M-501.44,-133.86L409.93,349.42" fill="none" stroke="#000000"/>
    <path d="M-499.03,-126.15L403.09,346.24" fill="none" stroke="#000000"/>
    <path d="M-503.42,-118.21L394.76,347.56" fill="none" stroke="#000000"/>
    <path d="M-508.63,-111.55L389.87,353.43" fill="none" stroke="#000000"/>
    <path d="M-516.07,-106.83L390.03,361.40" fill="none" stroke="#000000"/>
    <path d="M-524.12,-107.36L395.43,366.84" fill="none" stroke="#000000"/>
    <path d="M-531.79,-111.98L403.95,367.65" fill="none" stroke="#000000"/>
    <path d="M-537.13,-118.79L389.87,411.67" fill="none" stroke="#000000"/>
    <path d="M-537.11,-127.65L382.27,413.99" fill="none" stroke="#000000"/>
    <path d="M-536.06,-136.45L382.12,420.77" fill="none" stroke="#000000"/>
    <path d="M-535.37,-144.73L388.35,424.32" fill="none" stroke="#000000"/>
    <path d="M-539.23,-137.27L395.59,425.44" fill="none" stroke="#000000"/>
    <path d="M-542.90,-129.20L405.64,425.78" fill="none" stroke="#000000"/>
    <path d="M-546.76,-121.55L414.26,424.91" fill="none" stroke="#000000"/>
    <path d="M-552.19,-112.47L421.25,421.69" fill="none" stroke="#000000"/>
    <path d="M-558.10,-106.95L421.45,415.20" fill="none" stroke="#000000"/>
    <path d="M-564.98,-107.84L413.91,412.63" fill="none" stroke="#000000"/>
    <path d="M-572.78,-112.98L405.69,412.28" fill="none" stroke="#000000"/>
    <path d="M-578.82,-118.83L397.64,411.95" fill="none" stroke="#000000"/>
    <path d="M-577.48,-127.37L505.53,390.78" fill="none" stroke="#000000"/>
    <path d="M-575.72,-135.99L509.25,384.34" fill="none" stroke="#000000"/>
    <path d="M-573.96,-144.61L509.25,376.27" fill="none" stroke="#000000"/>
    <path d="M-573.58,-153.13L509.25,368.21" fill="none" stroke="#000000"/>
    <path d="M-576.55,-161.41L509.25,360.15" fill="none" stroke="#000000"/>
    <path d="M-579.53,-169.69L509.25,352.08" fill="none" stroke="#000000"/>
    <path d="M-582.51,-177.96L509.25,344.02" fill="none" stroke="#000000"/>
    <path d="M-582.66,-186.02L509.54,335.81" fill="none" stroke="#000000"/>
    <path d="M-576.28,-192.00L516.44,333.38" fill="none" stroke="#000000"/>
    <path d="M-568.22,-195.49L524.50,333.38" fill="none" stroke="#000000"/>
    <path d="M-559.52,-196.86L532.57,333.38" fill="none" stroke="#000000"/>
    <path d="M-550.78,-195.77L539.37,335.64" fill="none" stroke="#000000"/>
    <path d="M-549.92,-187.88L539.50,343.90" fill="none" stroke="#000000"/>
    <path d="M-549.70,-178.65L539.43,351.97" fill="none" stroke="#000000"/>
    <path d="M-549.81,-169.35L539.36,360.03" fill="none" stroke="#000000"/>
    <path d="M-550.19,-160.64L539.29,368.10" fill="none" stroke="#000000"/>
    <path d="M-492.17,-124.06L539.23,376.16" fill="none" stroke="#000000"/>
    <path d="M-490.65,-132.84L539.16,384.22" fill="none" stroke="#000000"/>
    <path d="M-488.98,-141.48L539.09,392.29" fill="none" stroke="#000000"/>
    <path d="M-487.31,-150.12L539.03,400.35" fill="none" stroke="#000000"/>
    <path d="M-487.64,-158.15L538.96,408.42" fill="none" stroke="#000000"/>
    <path d="M-489.04,-166.56L534.20,412.88" fill="none" stroke="#000000"/>
    <path d="M-490.42,-175.84L526.13,412.88" fill="none" stroke="#000000"/>
    <path d="M-491.71,-185.41L518.07,412.88" fill="none" stroke="#000000"/>
    <path d="M-492.84,-194.32L510.33,412.08" fill="none" stroke="#000000"/>
    <path d="M-493.81,-202.57L509.70,404.05" fill="none" stroke="#000000"/>
    <path d="M-494.94,-213.71L504.64,406.10" fill="none" stroke="#000000"/>
    <path d="M-493.63,-219.09L498.27,410.75" fill="none" stroke="#000000"/>
    <path d="M-486.57,-224.28L491.07,413.49" fill="none" stroke="#000000"/>
    <path d="M-477.99,-227.60L482.83,414.38" fill="none" stroke="#000000"/>
    <path d="M-469.25,-228.33L474.72,412.99" fill="none" stroke="#000000"/>
    <path d="M-461.11,-225.64L468.09,408.91" fill="none" stroke="#000000"/>
    <path d="M-460.40,-217.97L463.53,402.92" fill="none" stroke="#000000"/>
    <path d="M-460.81,-209.48L461.12,395.37" fill="none" stroke="#000000"/>
    <path d="M-461.34,-200.64L460.65,386.72" fill="none" stroke="#000000"/>
    <path d="M-461.97,-191.44L460.65,378.65" fill="none" stroke="#000000"/>
    <path d="M-462.59,-183.28L460.65,370.59" fill="none" stroke="#000000"/>
    <path d="M-463.19,-176.00L460.65,362.53" fill="none" stroke="#000000"/>
    <path d="M-463.87,-168.03L460.65,354.46" fill="none" stroke="#000000"/>
    <path d="M-464.64,-159.38L460.65,346.40" fill="none" stroke="#000000"/>
    <path d="M-465.51,-150.05L460.65,338.33" fill="none" stroke="#000000"/>
    <path d="M-466.46,-140.04L465.49,333.38" fill="none" stroke="#000000"/>
    <path d="M-465.83,-132.06L473.55,333.38" fill="none" stroke="#000000"/>
    <path d="M-457.86,-135.79L481.61,333.38" fill="none" stroke="#000000"/>
    <path d="M-452.66,-130.09L489.64,334.02" fill="none" stroke="#000000"/>
    <path d="M-452.45,-122.45L490.65,341.74" fill="none" stroke="#000000"/>
    <path d="M-457.36,-114.81L490.65,349.80" fill="none" stroke="#000000"/>
    <path d="M-463.85,-108.87L490.65,357.86" fill="none" stroke="#000000"/>
    <path d="M-471.97,-106.43L490.65,365.93" fill="none" stroke="#000000"/>
    <path d="M-480.08,-109.27L490.65,373.99" fill="none" stroke="#000000"/>
    <path d="M-486.95,-114.90L490.65,382.06" fill="none" stroke="#000000"/>
    <path d="M-361.99,-127.28L491.61,390.07" fill="none" stroke="#000000"/>
    <path d="M-366.33,-119.12L498.39,393.37" fill="none" stroke="#000000"/>
    <path d="M-371.17,-112.56L581.35,410.71" fill="none" stroke="#000000"/>
    <path d="M-378.55,-107.12L574.33,412.88" fill="none" stroke="#000000"/>
    <path d="M-386.47,-106.89L566.27,412.88" fill="none" stroke="#000000"/>
    <path d="M-394.39,-111.18L558.20,412.88" fill="none" stroke="#000000"/>
    <path d="M-400.18,-117.68L551.52,410.41" fill="none" stroke="#000000"/>
    <path d="M-400.74,-126.44L551.45,402.18" fill="none" stroke="#000000"/>
    <path d="M-399.71,-135.27L551.51,394.12" fill="none" stroke="#000000"/>
    <path d="M-398.51,-143.85L551.57,386.05" fill="none" stroke="#000000"/>
    <path d="M-403.32,-135.64L551.62,377.99" fill="none" stroke="#000000"/>
    <path d="M-407.80,-125.66L551.68,369.92" fill="none" stroke="#000000"/>
    <path d="M-411.91,-117.75L551.74,361.86" fill="none" stroke="#000000"/>
    <path d="M-415.67,-111.90L551.80,353.80" fill="none" stroke="#000000"/>
    <path d="M-419.25,-107.99L551.86,345.73" fill="none" stroke="#000000"/>
    <path d="M-427.34,-107.51L551.91,337.67" fill="none" stroke="#000000"/>
    <path d="M-434.90,-112.23L551.97,329.60" fill="none" stroke="#000000"/>
    <path d="M-441.26,-117.96L552.03,321.54" fill="none" stroke="#000000"/>
    <path d="M-441.18,-127.17L552.09,313.48" fill="none" stroke="#000000"/>
    <path d="M-441.23,-134.94L552.15,305.41" fill="none" stroke="#000000"/>
    <path d="M-441.72,-143.51L557.56,301.58" fill="none" stroke="#000000"/>
    <path d="M-442.67,-153.04L565.62,301.58" fill="none" stroke="#000000"/>
    <path d="M-444.07,-162.77L573.69,301.58" fill="none" stroke="#000000"/>
    <path d="M-445.81,-171.05L581.25,302.81" fill="none" stroke="#000000"/>
    <path d="M-447.72,-178.92L581.70,310.86" fill="none" stroke="#000000"/>
    <path d="M-442.96,-186.22L581.70,318.93" fill="none" stroke="#000000"/>
    <path d="M-436.07,-191.56L581.70,326.99" fill="none" stroke="#000000"/>
    <path d="M-427.95,-195.47L581.70,335.05" fill="none" stroke="#000000"/>
    <path d="M-419.49,-197.68L581.70,343.12" fill="none" stroke="#000000"/>
    <path d="M-412.85,-192.82L581.70,351.18" fill="none" stroke="#000000"/>
    <path d="M-407.22,-186.11L581.70,359.25" fill="none" stroke="#000000"/>
    <path d="M-402.32,-178.83L581.70,367.31" fill="none" stroke="#000000"/>
    <path d="M-400.54,-179.95L581.70,375.37" fill="none" stroke="#000000"/>
    <path d="M-400.91,-189.76L581.70,383.44" fill="none" stroke="#000000"/>
    <path d="M-396.97,-195.36L581.70,391.50" fill="none" stroke="#000000"/>
    <path d="M-387.94,-196.14L581.70,399.57" fill="none" stroke="#000000"/>
    <path d="M-379.10,-194.85L581.70,407.63" fill="none" stroke="#000000"/>
    <path d="M-371.73,-190.96L607.07,413.50" fill="none" stroke="#000000"/>
    <path d="M-367.77,-185.23L599.98,410.43" fill="none" stroke="#000000"/>
    <path d="M-369.02,-175.53L594.42,405.01" fill="none" stroke="#000000"/>
    <path d="M-370.61,-166.67L591.27,397.86" fill="none" stroke="#000000"/>
    <path d="M-372.47,-158.04L590.87,389.56" fill="none" stroke="#000000"/>
    <path d="M-374.72,-148.82L593.10,381.97" fill="none" stroke="#000000"/>
    <path d="M-377.35,-139.78L597.71,375.58" fill="none" stroke="#000000"/>
    <path d="M-380.10,-132.14L603.71,370.83" fill="none" stroke="#000000"/>
    <path d="M-374.35,-134.19L611.38,367.12" fill="none" stroke="#000000"/>
    <path d="M-366.98,-136.67L618.67,364.94" fill="none" stroke="#000000"/>
    <path d="M-361.92,-129.47L626.50,363.63" fill="none" stroke="#000000"/>
    <path d="M-404.10,-152.57L635.07,363.09" fill="none" stroke="#000000"/>
    <path d="M-400.49,-159.90L640.05,359.00" fill="none" stroke="#000000"/>
    <path d="M-402.97,-166.25L637.60,351.68" fill="none" stroke="#000000"/>
    <path d="M-411.84,-168.14L629.87,349.79" fill="none" stroke="#000000"/>
    <path d="M-416.31,-164.91L622.59,352.64" fill="none" stroke="#000000"/>
    <path d="M-416.30,-156.29L617.42,358.57" fill="none" stroke="#000000"/>
    <path d="M-416.83,-147.82L609.44,357.24" fill="none" stroke="#000000"/>
    <path d="M-418.02,-138.92L601.53,355.67" fill="none" stroke="#000000"/>
    <path d="M-415.73,-134.14L594.22,353.22" fill="none" stroke="#000000"/>
    <path d="M-410.79,-140.89L596.29,346.29" fill="none" stroke="#000000"/>
    <path d="M-328.72,-158.97L600.31,341.08" fill="none" stroke="#000000"/>
    <path d="M-327.15,-168.28L605.97,337.04" fill="none" stroke="#000000"/>
    <path d="M-325.59,-176.74L613.27,334.16" fill="none" stroke="#000000"/>
    <path d="M-323.74,-185.26L622.21,332.44" fill="none" stroke="#000000"/>
    <path d="M-321.17,-193.44L632.78,331.88" fill="none" stroke="#000000"/>
    <path d="M-313.88,-195.97L642.77,332.40" fill="none" stroke="#000000"/>
    <path d="M-304.91,-195.67L650.99,333.91" fill="none" stroke="#000000"/>
    <path d="M-296.33,-193.50L657.44,336.42" fill="none" stroke="#000000"/>
    <path d="M-288.87,-189.58L662.82,340.57" fill="none" stroke="#000000"/>
    <path d="M-288.23,-180.84L666.90,347.07" fill="none" stroke="#000000"/>
    <path d="M-288.51,-172.14L668.52,355.19" fill="none" stroke="#000000"/>
    <path d="M-289.51,-163.29L668.55,363.41" fill="none" stroke="#000000"/>
    <path d="M-291.08,-154.24L668.55,371.47" fill="none" stroke="#000000"/>
    <path d="M-293.27,-146.27L668.55,379.54" fill="none" stroke="#000000"/>
    <path d="M-301.59,-143.58L668.55,387.60" fill="none" stroke="#000000"/>
    <path d="M-310.11,-143.92L668.55,395.67" fill="none" stroke="#000000"/>
    <path d="M-312.90,-148.84L668.55,403.73" fill="none" stroke="#000000"/>
    <path d="M-312.88,-160.28L668.00,411.80" fill="none" stroke="#000000"/>
    <path d="M-314.38,-167.01L660.36,412.88" fill="none" stroke="#000000"/>
    <path d="M-317.93,-163.27L652.30,412.88" fill="none" stroke="#000000"/>
    <path d="M-320.09,-155.85L644.19,412.87" fill="none" stroke="#000000"/>
    <path d="M-322.71,-146.26L640.48,406.45" fill="none" stroke="#000000"/>
    <path d="M-325.50,-135.68L634.25,408.28" fill="none" stroke="#000000"/>
    <path d="M-326.21,-128.54L627.28,412.08" fill="none" stroke="#000000"/>
    <path d="M-317.49,-129.69L619.58,414.06" fill="none" stroke="#000000"/>
    <path d="M-311.80,-125.52L636.58,376.60" fill="none" stroke="#000000"/>
    <path d="M-311.33,-117.56L628.60,378.53" fill="none" stroke="#000000"/>
    <path d="M-317.56,-111.46L621.88,382.94" fill="none" stroke="#000000"/>
    <path d="M-325.26,-107.68L620.06,390.45" fill="none" stroke="#000000"/>
    <path d="M-333.98,-106.42L625.63,395.22" fill="none" stroke="#000000"/>
    <path d="M-342.70,-107.61L633.85,394.35" fill="none" stroke="#000000"/>
    <path d="M-349.27,-112.99L639.78,388.69" fill="none" stroke="#000000"/>
    <path d="M-353.44,-120.96L640.05,381.02" fill="none" stroke="#000000"/>
    <path d="M-352.47,-129.34L680.10,408.02" fill="none" stroke="#000000"/>
    <path d="M-349.17,-137.50L680.10,399.96" fill="none" stroke="#000000"/>
    <path d="M-348.54,-145.78L680.10,391.89" fill="none" stroke="#000000"/>
    <path d="M-351.02,-154.22L680.10,383.83" fill="none" stroke="#000000"/>
    <path d="M-353.51,-162.66L680.10,375.77" fill="none" stroke="#000000"/>
    <path d="M-355.99,-171.10L680.10,367.70" fill="none" stroke="#000000"/>
    <path d="M-358.47,-179.54L680.10,359.64" fill="none" stroke="#000000"/>
    <path d="M-360.38,-187.86L680.10,351.57" fill="none" stroke="#000000"/>
    <path d="M-353.65,-193.34L680.10,343.51" fill="none" stroke="#000000"/>
    <path d="M-345.25,-195.85L680.31,335.22" fill="none" stroke="#000000"/>
    <path d="M-336.22,-195.54L687.28,333.38" fill="none" stroke="#000000"/>
    <path d="M-330.92,-190.82L695.34,333.38" fill="none" stroke="#000000"/>
    <path d="M-331.02,-182.02L703.41,333.38" fill="none" stroke="#000000"/>
    <path d="M-331.12,-173.22L709.05,336.96" fill="none" stroke="#000000"/>
    <path d="M-331.22,-164.43L709.07,345.10" fill="none" stroke="#000000"/>
    <path d="M-331.33,-155.63L714.26,341.78" fill="none" stroke="#000000"/>
    <path d="M-330.42,-149.42L720.47,336.52" fill="none" stroke="#000000"/>
    <path d="M-278.91,-124.73L728.29,332.70" fill="none" stroke="#000000"/>
    <path d="M-277.28,-133.69L736.42,332.21" fill="none" stroke="#000000"/>
    <path d="M-275.61,-142.33L738.90,338.23" fill="none" stroke="#000000"/>
    <path d="M-273.94,-150.97L738.90,346.29" fill="none" stroke="#000000"/>
    <path d="M-274.57,-158.94L738.90,354.36" fill="none" stroke="#000000"/>
    <path d="M-275.97,-167.44L735.77,360.05" fill="none" stroke="#000000"/>
    <path d="M-277.34,-176.80L727.79,358.66" fill="none" stroke="#000000"/>
    <path d="M-278.61,-186.31L719.81,358.78" fill="none" stroke="#000000"/>
    <path d="M-279.73,-195.16L712.68,362.83" fill="none" stroke="#000000"/>
    <path d="M-280.68,-203.35L710.10,369.94" fill="none" stroke="#000000"/>
    <path d="M-281.79,-214.52L710.10,378.00" fill="none" stroke="#000000"/>
    <path d="M-279.85,-219.66L710.10,386.06" fill="none" stroke="#000000"/>
    <path d="M-272.51,-224.72L710.10,394.13" fill="none" stroke="#000000"/>
    <path d="M-263.95,-227.79L710.10,402.19" fill="none" stroke="#000000"/>
    <path d="M-255.11,-228.24L709.84,410.46" fill="none" stroke="#000000"/>
    <path d="M-247.25,-225.17L703.01,412.88" fill="none" stroke="#000000"/>
    <path d="M-247.22,-217.15L694.95,412.88" fill="none" stroke="#000000"/>
    <path d="M-247.65,-208.63L686.88,412.88" fill="none" stroke="#000000"/>
    <path d="M-248.18,-199.75L778.04,410.61" fill="none" stroke="#000000"/>
    <path d="M-248.82,-190.52L771.09,412.88" fill="none" stroke="#000000"/>
    <path d="M-249.43,-182.60L763.03,412.88" fill="none" stroke="#000000"/>
    <path d="M-250.03,-175.24L754.97,412.88" fill="none" stroke="#000000"/>
    <path d="M-250.73,-167.21L748.19,410.52" fill="none" stroke="#000000"/>
    <path d="M-251.51,-158.49L748.10,402.29" fill="none" stroke="#000000"/>
    <path d="M-252.38,-149.09L748.16,394.23" fill="none" stroke="#000000"/>
    <path d="M-253.34,-139.02L748.22,386.16" fill="none" stroke="#000000"/>
    <path d="M-251.83,-132.42L748.27,378.10" fill="none" stroke="#000000"/>
    <path d="M-243.86,-136.16L748.33,370.04" fill="none" stroke="#000000"/>
    <path d="M-238.99,-129.36L748.39,361.97" fill="none" stroke="#000000"/>
    <path d="M-239.63,-121.68L748.45,353.91" fill="none" stroke="#000000"/>
    <path d="M-244.71,-114.14L748.51,345.84" fill="none" stroke="#000000"/>
    <path d="M-251.42,-108.38L748.56,337.78" fill="none" stroke="#000000"/>
    <path d="M-259.53,-106.48L748.62,329.72" fill="none" stroke="#000000"/>
    <path d="M-267.69,-109.83L748.68,321.65" fill="none" stroke="#000000"/>
    <path d="M-274.35,-115.52L748.74,313.59" fill="none" stroke="#000000"/>
    <path d="M-157.63,-184.10L748.80,305.52" fill="none" stroke="#000000"/>
    <path d="M-159.93,-175.61L754.10,301.58" fill="none" stroke="#000000"/>
    <path d="M-162.99,-168.44L762.16,301.58" fill="none" stroke="#000000"/>
    <path d="M-165.55,-159.46L770.23,301.58" fill="none" stroke="#000000"/>
    <path d="M-164.04,-150.79L777.85,302.73" fill="none" stroke="#000000"/>
    <path d="M-162.53,-142.13L778.35,310.75" fill="none" stroke="#000000"/>
    <path d="M-161.02,-133.46L778.35,318.81" fill="none" stroke="#000000"/>
    <path d="M-159.51,-124.79L778.35,326.88" fill="none" stroke="#000000"/>
    <path d="M-158.01,-116.13L778.35,334.94" fill="none" stroke="#000000"/>
    <path d="M-156.50,-107.46L778.35,343.01" fill="none" stroke="#000000"/>
    <path d="M-157.18,-99.10L778.35,351.07" fill="none" stroke="#000000"/>
    <path d="M-161.65,-91.39L778.35,359.14" fill="none" stroke="#000000"/>
    <path d="M-167.54,-84.97L778.35,367.20" fill="none" stroke="#000000"/>
    <path d="M-174.71,-79.66L778.35,375.26" fill="none" stroke="#000000"/>
    <path d="M-182.57,-75.85L778.35,383.33" fill="none" stroke="#000000"/>
    <path d="M-191.02,-75.47L778.35,391.39" fill="none" stroke="#000000"/>
    <path d="M-199.83,-77.81L778.35,399.46" fill="none" stroke="#000000"/>
    <path d="M-207.76,-81.51L778.35,407.52" fill="none" stroke="#000000"/>
    <path d="M-214.84,-86.83L791.55,430.73" fill="none" stroke="#000000"/>
    <path d="M-214.60,-95.08L791.55,422.67" fill="none" stroke="#000000"/>
    <path d="M-210.06,-99.34L794.29,416.30" fill="none" stroke="#000000"/>
    <path d="M-201.17,-97.95L802.57,416.18" fill="none" stroke="#000000"/>
    <path d="M-190.82,-96.78L810.80,415.57" fill="none" stroke="#000000"/>
    <path d="M-183.62,-96.73L816.39,410.48" fill="none" stroke="#000000"/>
    <path d="M-183.49,-105.50L813.97,402.96" fill="none" stroke="#000000"/>
    <path d="M-183.60,-113.54L810.90,395.51" fill="none" stroke="#000000"/>
    <path d="M-183.88,-122.85L807.82,388.05" fill="none" stroke="#000000"/>
    <path d="M-184.24,-133.91L804.74,380.60" fill="none" stroke="#000000"/>
    <path d="M-184.43,-142.42L801.67,373.14" fill="none" stroke="#000000"/>
    <path d="M-185.57,-146.95L798.59,365.69" fill="none" stroke="#000000"/>
    <path d="M-188.94,-139.38L795.51,358.24" fill="none" stroke="#000000"/>
    <path d="M-193.30,-130.74L792.44,350.78" fill="none" stroke="#000000"/>
    <path d="M-197.64,-123.04L789.36,343.33" fill="none" stroke="#000000"/>
    <path d="M-202.70,-115.10L786.81,335.72" fill="none" stroke="#000000"/>
    <path d="M-208.00,-108.73L793.70,333.38" fill="none" stroke="#000000"/>
    <path d="M-215.16,-106.76L801.77,333.38" fill="none" stroke="#000000"/>
    <path d="M-223.40,-111.37L809.83,333.38" fill="none" stroke="#000000"/>
    <path d="M-230.55,-116.63L817.69,334.24" fill="none" stroke="#000000"/>
    <path d="M-231.06,-124.83L820.97,341.51" fill="none" stroke="#000000"/>
    <path d="M-229.30,-133.45L823.66,349.11" fill="none" stroke="#000000"/>
    <path d="M-227.54,-142.07L826.35,356.71" fill="none" stroke="#000000"/>
    <path d="M-225.78,-150.69L829.04,364.31" fill="none" stroke="#000000"/>
    <path d="M-228.74,-158.97L831.73,371.91" fill="none" stroke="#000000"/>
    <path d="M-231.71,-167.24L835.59,369.19" fill="none" stroke="#000000"/>
    <path d="M-234.69,-175.52L838.31,361.60" fill="none" stroke="#000000"/>
    <path d="M-236.97,-183.78L841.03,354.00" fill="none" stroke="#000000"/>
    <path d="M-231.49,-190.52L843.75,346.41" fill="none" stroke="#000000"/>
    <path d="M-223.79,-194.70L846.47,338.82" fill="none" stroke="#000000"/>
    <path d="M-215.12,-196.68L851.49,333.38" fill="none" stroke="#000000"/>
    <path d="M-205.95,-196.41L859.55,333.38" fill="none" stroke="#000000"/>
    <path d="M-203.11,-190.40L867.61,333.38" fill="none" stroke="#000000"/>
    <path d="M-202.79,-181.49L870.00,339.16" fill="none" stroke="#000000"/>
    <path d="M-202.81,-172.36L866.91,346.61" fill="none" stroke="#000000"/>
    <path d="M-203.09,-163.55L863.82,354.06" fill="none" stroke="#000000"/>
    <path d="M-203.69,-154.48L860.73,361.51" fill="none" stroke="#000000"/>
    <path d="M-204.69,-146.16L857.64,368.96" fill="none" stroke="#000000"/>
    <path d="M-206.25,-137.45L854.55,376.41" fill="none" stroke="#000000"/>
    <path d="M-201.64,-138.00L851.46,383.86" fill="none" stroke="#000000"/>
    <path d="M-196.48,-146.03L848.37,391.30" fill="none" stroke="#000000"/>
    <path d="M-192.34,-153.77L845.28,398.75" fill="none" stroke="#000000"/>
    <path d="M-188.68,-162.24L842.19,406.20" fill="none" stroke="#000000"/>
    <path d="M-189.33,-174.31L838.50,414.61" fill="none" stroke="#000000"/>
    <path d="M-190.09,-184.48L834.61,421.84" fill="none" stroke="#000000"/>
    <path d="M-190.50,-191.33L830.65,427.39" fill="none" stroke="#000000"/>
    <path d="M-188.54,-194.96L824.50,432.80" fill="none" stroke="#000000"/>
    <path d="M-179.38,-196.20L817.61,435.79" fill="none" stroke="#000000"/>
    <path d="M-170.26,-195.37L810.48,437.10" fill="none" stroke="#000000"/>
    <path d="M-162.68,-192.06L801.60,437.62" fill="none" stroke="#000000"/>
    <path d="M378.45,128.60C378.95,128 379.65,127.70 380.55,127.70L460.50,127.70C462.30,127.70 463.20,128.75 463.20,130.85L463.05,148.25C463.05,150.95 461.80,152.30 459.30,152.30L415.20,152.30C412.90,152.30 411.75,153.25 411.75,155.15L411.75,169.25C411.75,171.25 412.65,172.25 414.45,172.25L441.90,172.25C443.90,172.25 444.90,173.25 444.90,175.25L444.90,193.55C444.90,195.25 444,196.10 442.20,196.10L414.15,196.10C413.45,196.10 412.88,196.30 412.42,196.70C411.97,197.10 411.75,197.65 411.75,198.35L411.75,234.65C411.75,236.25 411.35,237.38 410.55,238.02C409.75,238.67 408.50,239 406.80,239L381.75,239C380.25,239 379.20,238.70 378.60,238.10C378.00,237.50 377.70,236.55 377.70,235.25L377.70,131.15C377.70,130.05 377.95,129.20 378.45,128.60ZM467.55,236.15L504.90,130.40C505.20,129.60 505.70,128.95 506.40,128.45C507.10,127.95 507.90,127.70 508.80,127.70L521.25,127.70C523.35,127.70 524.40,128.50 524.40,130.10C524.40,130.40 524.20,131.25 523.80,132.65L487.65,235.10C487.15,236.50 486.47,237.50 485.63,238.10C484.77,238.70 483.70,239 482.40,239L469.95,239C467.75,239 466.95,238.05 467.55,236.15ZM532.95,128.60C533.45,128 534.15,127.70 535.05,127.70L563.55,127.70C565.35,127.70 566.25,128.75 566.25,130.85L566.25,212.30C566.25,213.10 566.38,213.65 566.63,213.95C566.88,214.25 567.35,214.40 568.05,214.40L613.20,214.40C615.50,214.40 616.65,215.35 616.65,217.25L616.65,235.70C616.65,236.70 616.33,237.50 615.67,238.10C615.03,238.70 614.10,239 612.90,239L536.25,239C534.75,239 533.70,238.70 533.10,238.10C532.50,237.50 532.20,236.55 532.20,235.25L532.20,131.15C532.20,130.05 532.45,129.20 532.95,128.60ZM650.92,233.52C642.77,228.88 636.50,222.28 632.10,213.73C627.70,205.17 625.50,195.15 625.50,183.65C625.50,172.15 627.72,162.07 632.17,153.43C636.62,144.77 642.92,138.07 651.07,133.32C659.22,128.57 668.70,126.20 679.50,126.20C690.20,126.20 699.60,128.57 707.70,133.32C715.80,138.07 722.07,144.77 726.53,153.43C730.97,162.07 733.20,172.15 733.20,183.65C733.20,195.05 731.00,205.05 726.60,213.65C722.20,222.25 715.95,228.88 707.85,233.52C699.75,238.17 690.30,240.50 679.50,240.50C668.60,240.50 659.08,238.17 650.92,233.52ZM690,213.88C692.60,211.72 694.50,208.25 695.70,203.45C696.90,198.65 697.50,192.20 697.50,184.10C697.50,171.70 696.10,162.80 693.30,157.40C690.50,152 685.90,149.30 679.50,149.30C673,149.30 668.32,152 665.47,157.40C662.62,162.80 661.20,171.70 661.20,184.10C661.20,192.20 661.80,198.65 663,203.45C664.20,208.25 666.13,211.72 668.78,213.88C671.43,216.03 675,217.10 679.50,217.10C683.90,217.10 687.40,216.03 690,213.88ZM804.22,151.55C801.47,150.15 797.50,149.45 792.30,149.45C787.10,149.45 783.25,150.20 780.75,151.70C778.25,153.20 777,155 777,157.10C777,160.70 780.20,163.25 786.60,164.75L811.50,171.20C820.60,173.50 827.45,177.52 832.05,183.27C836.65,189.02 838.95,195.90 838.95,203.90C838.95,211.30 837,217.75 833.10,223.25C829.20,228.75 823.63,233 816.38,236C809.13,239 800.65,240.50 790.95,240.50C779.95,240.50 769.93,238.67 760.88,235.02C751.83,231.38 745.55,226.60 742.05,220.70C741.55,219.70 741.30,218.95 741.30,218.45C741.30,217.45 741.85,216.55 742.95,215.75L758.40,205.10C759.50,204.40 760.50,204.05 761.40,204.05C762.50,204.05 763.40,204.50 764.10,205.40C767.50,209.80 770.95,212.90 774.45,214.70C777.95,216.50 782.60,217.40 788.40,217.40C794.00,217.40 798.43,216.62 801.68,215.07C804.93,213.52 806.55,211.40 806.55,208.70C806.55,206.80 805.75,205.15 804.15,203.75C802.55,202.35 800.20,201.30 797.10,200.60L774.30,195.05C765.30,192.85 758.15,188.73 752.85,182.68C747.55,176.63 744.90,169.65 744.90,161.75C744.90,155.25 746.80,149.27 750.60,143.82C754.40,138.37 759.80,134.07 766.80,130.93C773.80,127.77 781.90,126.20 791.10,126.20C800.10,126.20 808.45,127.67 816.15,130.63C823.85,133.58 829.40,137.50 832.80,142.40C833.50,143.30 833.85,144.15 833.85,144.95C833.85,145.65 833.50,146.30 832.80,146.90L816.45,158.75C815.95,159.15 815.40,159.35 814.80,159.35C814.10,159.35 813.15,158.75 811.95,157.55C809.55,154.95 806.97,152.95 804.22,151.55ZM263.40,409.73C263.40,410.63 263.13,411.38 262.58,411.98C262.03,412.58 261.30,412.88 260.40,412.88L231.30,412.88C229.20,412.88 227.85,411.83 227.25,409.73L213.15,371.03C212.85,370.23 212.35,369.63 211.65,369.23C210.95,368.83 209.90,368.63 208.50,368.63L201.60,368.63C201.00,368.63 200.55,368.83 200.25,369.23C199.95,369.63 199.80,369.98 199.80,370.28L199.80,408.53C199.80,410.13 199.40,411.26 198.60,411.90C197.80,412.56 196.55,412.88 194.85,412.88L169.65,412.88C168.15,412.88 167.13,412.58 166.58,411.98C166.03,411.38 165.75,410.43 165.75,409.13L165.75,305.03C165.75,302.73 166.70,301.58 168.60,301.58L218.70,301.58C233.20,301.58 244.45,304.36 252.45,309.90C260.45,315.46 264.45,323.28 264.45,333.38C264.45,340.28 262.63,346.43 258.98,351.83C255.33,357.23 250.60,361.03 244.80,363.23C244.20,363.53 243.90,364.03 243.90,364.73C243.90,365.03 244.00,365.48 244.20,366.08L263.10,408.08C263.30,408.48 263.40,409.03 263.40,409.73ZM226.13,343.36C228.18,341.41 229.20,338.78 229.20,335.48C229.20,331.78 227.98,328.91 225.53,326.86C223.08,324.81 220.05,323.78 216.45,323.78L203.25,323.78C201.95,323.78 201.05,324.01 200.55,324.46C200.05,324.91 199.80,325.68 199.80,326.78L199.80,343.13C199.80,344.23 199.98,345.03 200.33,345.53C200.68,346.03 201.35,346.28 202.35,346.28L217.35,346.28C221.15,346.28 224.08,345.31 226.13,343.36ZM307.13,391.13C309.98,393.43 313.70,394.58 318.30,394.58C321.00,394.58 323.60,393.96 326.10,392.71C328.60,391.46 331.45,389.28 334.65,386.18C335.05,385.78 335.45,385.58 335.85,385.58C336.25,385.58 336.90,385.73 337.80,386.03L351.45,391.58C352.35,391.88 352.80,392.48 352.80,393.38C352.80,393.98 352.55,394.58 352.05,395.18C346.85,402.48 341.43,407.51 335.78,410.26C330.13,413.01 322.95,414.38 314.25,414.38C306.35,414.38 299.18,412.68 292.73,409.28C286.28,405.88 281.20,401.16 277.50,395.11C273.80,389.06 271.95,382.18 271.95,374.48C271.95,366.18 273.85,358.81 277.65,352.36C281.45,345.91 286.55,340.88 292.95,337.28C299.35,333.68 306.25,331.88 313.65,331.88C321.55,331.88 328.58,333.58 334.73,336.98C340.88,340.38 345.70,345.31 349.20,351.76C352.70,358.21 354.45,365.88 354.45,374.78C354.45,376.18 354.30,377.13 354.00,377.63C353.70,378.13 352.95,378.43 351.75,378.53L305.10,378.53C303.60,378.53 302.85,379.38 302.85,381.08C302.85,385.48 304.28,388.83 307.13,391.13ZM322.80,363.08C323.80,363.08 324.48,362.96 324.83,362.71C325.18,362.46 325.35,361.88 325.35,360.98C325.35,358.48 324.45,355.93 322.65,353.33C320.85,350.73 318.30,349.43 315.00,349.43C311.70,349.43 308.90,350.58 306.60,352.88C304.30,355.18 303.20,358.53 303.30,362.93ZM452.55,332.33L452.55,345.83C452.55,348.53 451.65,349.88 449.85,349.88C449.35,349.88 448.95,349.83 448.65,349.73C446.35,349.03 444.15,348.68 442.05,348.68C439.95,348.68 438.90,349.43 438.90,350.93C438.90,351.43 438.95,351.83 439.05,352.13C439.55,353.83 439.80,355.38 439.80,356.78C439.80,361.38 438.30,365.56 435.30,369.31C432.30,373.06 427.90,376.03 422.10,378.23C416.30,380.43 409.35,381.53 401.25,381.53C391.95,381.53 387.30,382.88 387.30,385.58C387.30,386.68 387.83,387.43 388.88,387.83C389.93,388.23 391.60,388.53 393.90,388.73L416.70,390.08C427.50,390.78 435.55,393.08 440.85,396.98C446.15,400.88 448.80,406.03 448.80,412.43C448.80,417.63 447.08,422.23 443.63,426.23C440.18,430.23 435.05,433.38 428.25,435.68C421.45,437.98 413.15,439.13 403.35,439.13C387.55,439.13 375.83,437.66 368.18,434.71C360.53,431.76 356.70,427.13 356.70,420.83C356.70,417.73 357.98,415.26 360.53,413.40C363.08,411.56 366.65,409.98 371.25,408.68C371.95,408.58 372.30,408.33 372.30,407.93C372.30,407.63 371.95,407.33 371.25,407.03C364.65,403.83 361.35,399.68 361.35,394.58C361.35,388.88 366.80,383.73 377.70,379.13C378.30,378.83 378.70,378.56 378.90,378.31C379.10,378.06 378.85,377.73 378.15,377.33C373.15,375.23 369.30,372.43 366.60,368.93C363.90,365.43 362.55,361.43 362.55,356.93C362.55,349.43 366.05,343.43 373.05,338.93C380.05,334.43 390.05,332.18 403.05,332.18C408.55,332.18 413.45,332.81 417.75,334.06C422.05,335.31 425.50,336.93 428.10,338.93C428.60,339.43 429.35,339.68 430.35,339.68C431.45,339.68 432.25,339.28 432.75,338.48C434.65,335.78 437.35,333.46 440.85,331.51C444.35,329.56 447.25,328.58 449.55,328.58C451.55,328.58 452.55,329.83 452.55,332.33ZM409.73,364.81C411.68,362.76 412.65,360.28 412.65,357.38C412.65,354.08 411.70,351.38 409.80,349.28C407.90,347.18 404.95,346.13 400.95,346.13C397.35,346.13 394.50,347.21 392.40,349.36C390.30,351.51 389.25,354.18 389.25,357.38C389.25,360.28 390.30,362.76 392.40,364.81C394.50,366.86 397.35,367.88 400.95,367.88C404.85,367.88 407.78,366.86 409.73,364.81ZM391.20,411.68C388.10,411.58 385.60,412.03 383.70,413.03C381.80,414.03 380.85,415.33 380.85,416.93C380.85,419.93 382.63,422.16 386.18,423.61C389.73,425.06 395.95,425.78 404.85,425.78C410.55,425.78 414.98,425.08 418.13,423.68C421.28,422.28 422.85,420.43 422.85,418.13C422.85,416.63 421.98,415.36 420.23,414.31C418.48,413.26 416.05,412.68 412.95,412.58ZM504.15,391.65C506.15,390.51 507.85,389.03 509.25,387.23L509.25,337.73C509.25,336.23 509.65,335.13 510.45,334.43C511.25,333.73 512.50,333.38 514.20,333.38L535.65,333.38C537.05,333.38 538.05,333.68 538.65,334.28C539.25,334.88 539.55,335.88 539.55,337.28L538.95,409.58C538.95,411.78 538.00,412.88 536.10,412.88L512.40,412.88C510.60,412.88 509.70,411.88 509.70,409.88L509.70,403.28C509.70,402.48 509.45,402.08 508.95,402.08C508.65,402.08 508.30,402.28 507.90,402.68C504.50,406.68 500.78,409.63 496.73,411.53C492.68,413.43 488.10,414.38 483.00,414.38C476.40,414.38 471.03,412.16 466.88,407.71C462.73,403.26 460.65,397.13 460.65,389.33L460.65,337.88C460.65,334.88 462.20,333.38 465.30,333.38L487.20,333.38C488.50,333.38 489.40,333.68 489.90,334.28C490.40,334.88 490.65,335.88 490.65,337.28L490.65,386.03C490.65,388.33 491.33,390.13 492.68,391.43C494.03,392.73 495.80,393.38 498.00,393.38C500.10,393.38 502.15,392.81 504.15,391.65ZM581.70,408.53C581.70,410.13 581.30,411.26 580.50,411.90C579.70,412.56 578.45,412.88 576.75,412.88L555.45,412.88C553.95,412.88 552.90,412.58 552.30,411.98C551.70,411.38 551.40,410.43 551.40,409.13L552.15,305.03C552.15,302.73 553.10,301.58 555.00,301.58L579.00,301.58C579.80,301.58 580.45,301.86 580.95,302.40C581.45,302.96 581.70,303.73 581.70,304.73ZM614.70,414.38C607.40,414.38 601.58,412.33 597.23,408.23C592.88,404.13 590.70,398.88 590.70,392.48C590.70,386.68 592.58,381.56 596.33,377.11C600.08,372.66 605.43,369.21 612.38,366.76C619.33,364.31 627.45,363.08 636.75,363.08L637.80,363.08C639.30,363.08 640.05,362.38 640.05,360.98L640.05,358.43C640.05,352.63 637.10,349.73 631.20,349.73C628.80,349.73 626.55,350.28 624.45,351.38C622.35,352.48 620.70,354.28 619.50,356.78C619.20,357.48 618.88,357.96 618.53,358.21C618.18,358.46 617.70,358.58 617.10,358.58C616.40,358.58 615.85,358.53 615.45,358.43L595.80,354.53C594.70,354.33 594.15,353.68 594.15,352.58C594.15,351.88 594.35,350.93 594.75,349.73C598.95,337.83 611.55,331.88 632.55,331.88C645.65,331.88 654.93,334.03 660.38,338.33C665.83,342.63 668.55,348.73 668.55,356.63L668.55,408.83C668.55,410.33 668.33,411.38 667.88,411.98C667.43,412.58 666.50,412.88 665.10,412.88L644.55,412.88C643.35,412.88 642.48,412.43 641.93,411.53C641.38,410.63 640.95,409.33 640.65,407.63L640.50,406.58C640.40,405.58 640.00,405.08 639.30,405.08C638.50,405.08 637.55,405.58 636.45,406.58C630.25,411.78 623.00,414.38 614.70,414.38ZM639.60,377.18C639.30,376.78 638.70,376.58 637.80,376.58L637.20,376.58C635.30,376.58 632.98,377.03 630.23,377.93C627.48,378.83 625.05,380.15 622.95,381.90C620.85,383.65 619.80,385.83 619.80,388.43C619.80,390.53 620.55,392.23 622.05,393.53C623.55,394.83 625.65,395.48 628.35,395.48C631.55,395.48 634.30,394.53 636.60,392.63C638.90,390.73 640.05,388.93 640.05,387.23L640.05,379.28C640.05,378.28 639.90,377.58 639.60,377.18ZM680.93,411.98C680.38,411.38 680.10,410.43 680.10,409.13L680.10,336.83C680.10,334.53 681.05,333.38 682.95,333.38L706.35,333.38C707.15,333.38 707.80,333.66 708.30,334.21C708.80,334.76 709.05,335.48 709.05,336.38L709.05,344.78C709.05,345.68 709.40,346.13 710.10,346.13C710.60,346.13 711.10,345.83 711.60,345.23C714.00,341.53 717.35,338.38 721.65,335.78C725.95,333.18 729.85,331.88 733.35,331.88C737.05,331.88 738.90,332.88 738.90,334.88L738.90,357.68C738.90,358.68 738.63,359.38 738.08,359.78C737.53,360.18 736.80,360.28 735.90,360.08C731.60,358.98 727.30,358.43 723.00,358.43C719.70,358.43 716.73,359.48 714.08,361.58C711.43,363.68 710.10,366.03 710.10,368.63L710.10,408.53C710.10,410.13 709.70,411.26 708.90,411.90C708.10,412.56 706.85,412.88 705.15,412.88L684.00,412.88C682.50,412.88 681.48,412.58 680.93,411.98ZM778.35,408.53C778.35,410.13 777.95,411.26 777.15,411.90C776.35,412.56 775.10,412.88 773.40,412.88L752.10,412.88C750.60,412.88 749.55,412.58 748.95,411.98C748.35,411.38 748.05,410.43 748.05,409.13L748.80,305.03C748.80,302.73 749.75,301.58 751.65,301.58L775.65,301.58C776.45,301.58 777.10,301.86 777.60,302.40C778.10,302.96 778.35,303.73 778.35,304.73ZM793.28,437.03C792.13,436.63 791.55,435.73 791.55,434.33L791.55,419.03C791.55,418.33 791.88,417.68 792.53,417.08C793.18,416.48 794.25,416.18 795.75,416.18L806.40,416.18C809.30,416.18 811.70,415.53 813.60,414.23C815.50,412.93 816.45,411.43 816.45,409.73C816.45,409.33 816.35,408.83 816.15,408.23L787.05,337.73C786.85,337.13 786.75,336.68 786.75,336.38C786.75,335.48 787.05,334.76 787.65,334.21C788.25,333.66 789.00,333.38 789.90,333.38L815.25,333.38C816.15,333.38 816.95,333.66 817.65,334.21C818.35,334.76 818.85,335.48 819.15,336.38L831.90,372.38C832.20,373.38 832.60,373.88 833.10,373.88C833.60,373.88 834.05,373.38 834.45,372.38L847.35,336.38C848.25,334.38 849.55,333.38 851.25,333.38L868.05,333.38C868.95,333.38 869.65,333.66 870.15,334.21C870.65,334.76 870.90,335.43 870.90,336.23C870.90,336.63 870.80,337.13 870.60,337.73L841.35,408.23C837.85,416.63 834.38,422.91 830.93,427.06C827.48,431.21 823.43,434.01 818.78,435.46C814.13,436.91 807.85,437.63 799.95,437.63C796.65,437.63 794.43,437.43 793.28,437.03Z" fill="#ffffff"/>
</svg>