<svg xmlns="http://www.w3.org/2000/svg" xmlns:xlink="http://www.w3.org/1999/xlink" version="1.1" x="0px" y="0px" viewBox="0 0 100 100" enable-background="new 0 0 100 100" xml:space="preserve"><path d="M94.611,23.839l-12.351-2.47c-0.667-2.011-3.621-9.152-11.938-9.152c-24.193,0-9.677,36.29-31.451,36.29  C26.774,48.508,5,38.829,5,38.829s12.626,31.555,37.874,35.813l6.197,9.507c0.439,0.671,0.144,1.216-0.659,1.216h-4.38  c-0.801,0-1.452,0.542-1.452,1.21s0.65,1.209,1.452,1.209h31.613c0.802,0,1.452-0.541,1.452-1.209s-0.65-1.21-1.452-1.21h-8.376  c-0.802,0-1.807-0.545-2.245-1.216l-6.469-9.923c20.184-3.909,23.865-19.701,23.865-28.139c0-7.116-4.648-9.587-0.262-18.809  l12.454-2.49C94.837,24.742,95,24.544,95,24.313S94.837,23.884,94.611,23.839z M62.136,84.148c0.438,0.671,0.143,1.216-0.659,1.216  h-7.273c-0.801,0-1.806-0.545-2.245-1.216l-5.948-9.124c0.833,0.062,1.678,0.096,2.537,0.096c2.665,0,5.124-0.164,7.396-0.469  L62.136,84.148z"></path></svg>