<svg xmlns="http://www.w3.org/2000/svg" xmlns:xlink="http://www.w3.org/1999/xlink" version="1.1" x="0px" y="0px" viewBox="0 0 100 90.096" enable-background="new 0 0 100 90.096" xml:space="preserve"><path d="M49.841,7.262L20.027,19.801L6.726,52.135C6.769,52.318,6.8,52.502,6.8,52.689v35.229c0,1.196,0.979,2.178,2.178,2.178  h19.125l62.975-0.002c1.195,0,2.178-0.979,2.178-2.177V52.616c0-0.068,0.014-0.138,0.02-0.204L79.679,19.756L49.841,7.262z   M99.856,49.016c0.4,0.974-0.061,2.087-1.033,2.487c-0.979,0.406-2.088-0.061-2.488-1.033l-0.328-0.796l-0.057,0.012L82.594,17.604  c-0.006-0.014-0.018-0.023-0.025-0.036c-0.361-0.431-0.82-0.832-1.219-1.03l-6.211-2.601L51.245,4.004  c-0.635-0.262-1.922-0.262-2.555,0.002L18.71,16.521c-0.634,0.266-1.547,1.182-1.808,1.818L3.995,49.749l-0.327,0.793  c-0.089,0.217-0.222,0.4-0.374,0.563c-0.359,0.389-0.859,0.617-1.389,0.617c-0.241,0-0.487-0.046-0.723-0.145  c-0.974-0.398-1.438-1.512-1.039-2.484l13.234-32.201c0.645-1.563,2.305-3.233,3.866-3.886L47.223,0.492  c1.563-0.654,3.92-0.656,5.484-0.004l29.998,12.467c1.561,0.65,3.225,2.319,3.869,3.881L99.856,49.016"></path></svg>