<?xml version="1.0" encoding="UTF-8" standalone="no"?>
<svg
   xmlns:dc="http://purl.org/dc/elements/1.1/"
   xmlns:cc="http://creativecommons.org/ns#"
   xmlns:rdf="http://www.w3.org/1999/02/22-rdf-syntax-ns#"
   xmlns:svg="http://www.w3.org/2000/svg"
   xmlns="http://www.w3.org/2000/svg"
   xmlns:sodipodi="http://sodipodi.sourceforge.net/DTD/sodipodi-0.dtd"
   xmlns:inkscape="http://www.inkscape.org/namespaces/inkscape"
   version="1.1"
   x="0px"
   y="0px"
   viewBox="0 0 100 100"
   enable-background="new 0 0 100 100"
   xml:space="preserve"
   id="svg6"
   sodipodi:docname="noun_603882-edit.svg"
   inkscape:version="0.92.2 5c3e80d, 2017-08-06"><metadata
     id="metadata12"><rdf:RDF><cc:Work
         rdf:about=""><dc:format>image/svg+xml</dc:format><dc:type
           rdf:resource="http://purl.org/dc/dcmitype/StillImage" /><dc:title></dc:title></cc:Work></rdf:RDF></metadata><defs
     id="defs10" /><sodipodi:namedview
     pagecolor="#ffffff"
     bordercolor="#666666"
     borderopacity="1"
     objecttolerance="10"
     gridtolerance="10"
     guidetolerance="10"
     inkscape:pageopacity="0"
     inkscape:pageshadow="2"
     inkscape:window-width="1370"
     inkscape:window-height="728"
     id="namedview8"
     showgrid="false"
     inkscape:zoom="4.72"
     inkscape:cx="50"
     inkscape:cy="50"
     inkscape:window-x="0"
     inkscape:window-y="0"
     inkscape:window-maximized="0"
     inkscape:current-layer="svg6" /><g
     id="g4"><path
       d="m 50,89.076 c -0.289,0 -0.577,-0.083 -0.829,-0.25 -0.957,-0.634 -1.919,-1.268 -2.881,-1.9 C 40.354,83.021 34.217,78.982 29.457,74.721 22.726,68.695 19.591,63.115 19.591,57.161 V 12.424 c 0,-0.829 0.671,-1.5 1.5,-1.5 h 57.82 c 0.828,0 1.5,0.671 1.5,1.5 v 44.737 c 0,5.952 -3.135,11.532 -9.865,17.56 -4.764,4.263 -10.904,8.303 -16.842,12.21 -0.959,0.631 -1.92,1.263 -2.875,1.896 -0.253,0.166 -0.54,0.249 -0.829,0.249 z"
       id="path2"
       inkscape:connector-curvature="0"
       sodipodi:nodetypes="scccsssssscccs" /></g></svg>