<svg xmlns="http://www.w3.org/2000/svg" xmlns:xlink="http://www.w3.org/1999/xlink" version="1.1" x="0px" y="0px" viewBox="0 0 100 100" enable-background="new 0 0 100 100" xml:space="preserve"><path d="M87.334,60.233l-0.211-20.486l-6.284-0.075c0,0-0.43-1.039-0.689-1.299c-0.826-0.825-2.971-2.014-4.124-2.191  c-1.883-0.29-7.489,1.387-7.489,1.387H47.184L27.192,25.038l-3.168-2.513v-4.589l-2.622,4.261L7.131,35.255l0.941,1.218l1.204,1.559  l13.099-5.236l0.557,0.763c0,0,4.694,9.735,6.555,12.815c0.748,1.237,3.331,4.725,3.331,4.725l-7.374,8.57l0.112,6.562l7.515,5.509  l1.094,0.11l3.076-1.599l-2.919-2.36l-1.832,0.35l-4.247-3.312l1.048-3.919l8.042-3.03l1.862,21.643l-1.298,2.442h3.278l1.277-2.482  L42.37,56.456c0,0,11.001,1.427,14.671,1.17c2.543-0.179,9.952-2.223,9.952-2.223l2.122,10.393l-3.604,12.157l-2.228,3.759h2.839  l1.464-2.631l5.135-11.404v-3.651l5.243,5.162l-1.541,10.333l-1.342,2.52h3.169l1.31-2.622l3.212-15.69c0,0-1.867-1.034-2.185-1.638  c-0.796-1.505-0.302-6.8-0.302-6.8s3.699-7.302,3.527-9.931c-0.048-0.717-1.889-4.178-1.889-4.178l2.785,0.374v18.622L87.334,60.233  z"></path></svg>