<svg xmlns="http://www.w3.org/2000/svg" xmlns:xlink="http://www.w3.org/1999/xlink" version="1.1" x="0px" y="0px" viewBox="0 0 160 160" style="enable-background:new 0 0 160 160;" xml:space="preserve"><g><polygon points="70.5,91.4 74.3,85.5 9,85.5 9,91.4  "></polygon><polygon points="9,107.4 9,119 52.9,119 60.3,107.4  "></polygon><rect x="112.5" y="85.5" width="38.5" height="5.9"></rect><polygon points="9,95.4 9,103.4 62.8,103.4 67.9,95.4  "></polygon><rect x="112.5" y="107.4" width="38.5" height="11.6"></rect><rect x="112.5" y="95.4" width="38.5" height="8"></rect><polygon points="79,85.5 45.4,138.1 60.3,138.1 83,85.5  "></polygon><rect x="112.5" y="123" width="38.5" height="15.2"></rect><polygon points="108.5,85.5 104.1,85.5 97,138.1 108.5,138.1  "></polygon><polygon points="87.4,85.5 64.7,138.1 77.2,138.1 91.6,85.5  "></polygon><polygon points="50.4,123 9,123 9,138.1 40.7,138.1  "></polygon><polygon points="95.7,85.5 81.3,138.1 92.9,138.1 100,85.5  "></polygon><path d="M80,80.5L80,80.5L80,80.5z"></path><rect x="17.2" y="64.4" width="15.6" height="17.3"></rect><path d="M25,21.9L25,21.9c-4.3,0-7.8,3.5-7.8,7.8v9.5h15.6v-9.5C32.8,25.3,29.3,21.9,25,21.9z"></path><rect x="17.2" y="43.1" width="15.6" height="17.3"></rect><polygon points="138.8,63.5 138.8,68 134.7,68 134.7,63.5 130.7,63.5 130.7,68 126.6,68 126.6,63.5 122.6,63.5 122.6,68 118.5,68    118.5,63.5 114.5,63.5 114.5,68 110.5,68 110.5,63.5 106.5,63.5 106.5,68 102.3,68 102.3,63.5 98.3,63.5 98.3,68 98.3,72    98.3,81.6 102.3,81.6 102.3,72 106.5,72 106.5,81.6 110.5,81.6 110.5,72 114.5,72 114.5,81.6 118.5,81.6 118.5,72 122.6,72    122.6,81.6 126.6,81.6 126.6,72 130.7,72 130.7,81.6 134.7,81.6 134.7,72 138.8,72 138.8,81.6 142.8,81.6 142.8,72 142.8,68    142.8,63.5  "></polygon><polygon points="73.1,81.6 65.5,74.2 58,81.6  "></polygon><polygon points="75.9,78.8 75.9,64 68.4,71.4  "></polygon><polygon points="58,61.2 65.5,68.6 73.1,61.2  "></polygon><path d="M65.5,29.6c-14.9,0-27,12.1-27,27v25.1h12.6V61.2v-4h4h20.7h4v4v20.5h12.6V56.5C92.5,41.6,80.4,29.6,65.5,29.6z M72.2,49.8   H59.9v-6.5h12.2L72.2,49.8L72.2,49.8z"></path><polygon points="55.2,78.8 62.7,71.4 55.2,64  "></polygon></g></svg>