<svg xmlns="http://www.w3.org/2000/svg" xmlns:xlink="http://www.w3.org/1999/xlink" version="1.1" x="0px" y="0px" viewBox="-399.5 300.5 24 24" enable-background="new -399.5 300.5 24 24" xml:space="preserve"><path d="M-380.5,307.5l3,1l1-1l-3-3v-1l-1,1h-3c0.739,0,1.376,0.404,1.723,1h-2.723c0.739,0,1.376,0.404,1.723,1h-2.723  c0.739,0,1.376,0.404,1.723,1h-2.723c0.739,0,1.376,0.404,1.723,1h-2.723c0.739,0,1.376,0.404,1.723,1h-6.723  c-0.726,0-1.382,0.269-1.901,0.697c-0.541-0.445-1.281-0.721-2.099-0.721c-1.657,0-3,1.125-3,2.512c0,0.176,0.022,0.347,0.063,0.512  h1.938c0-0.003-0.001-0.006-0.001-0.009c0-1.109,0.896-2.01,2-2.01c0.243,0,0.475,0.046,0.69,0.126  c-0.425,0.518-0.69,1.171-0.69,1.893c0,0.484,0.125,0.936,0.33,1.341l-2.33,4.659l1,4h1l-1-4l3-3h1l-1,3l2,4h1l-2-4l2.25-3h0.75h5  l1,3l-1,4h1l1-4v-3l3,2v3h1v-4l-3-2.25V311L-380.5,307.5z"></path></svg>