<svg xmlns="http://www.w3.org/2000/svg" xmlns:xlink="http://www.w3.org/1999/xlink" version="1.1" x="0px" y="0px" viewBox="0 0 100 100" enable-background="new 0 0 100 100" xml:space="preserve"><g><path d="M50,82c-0.241,0-0.483-0.044-0.712-0.131c-0.277-0.106-6.873-2.652-13.542-8.027C26.753,66.595,22,57.659,22,48V20   c0-1.104,0.896-2,2-2h52c1.104,0,2,0.896,2,2v28c0,9.659-4.753,18.595-13.745,25.842c-6.67,5.375-13.265,7.921-13.542,8.027   C50.483,81.956,50.241,82,50,82z M26,22v26c0,18.444,19.942,28.067,24,29.833C54.058,76.067,74,66.444,74,48V22H26z"></path></g><g><path d="M47,56c-0.512,0-1.024-0.195-1.414-0.586l-8-8c-0.781-0.781-0.781-2.047,0-2.828c0.78-0.781,2.048-0.781,2.828,0L47,51.172   l14.586-14.586c0.781-0.781,2.047-0.781,2.828,0c0.781,0.781,0.781,2.047,0,2.828l-16,16C48.024,55.805,47.512,56,47,56z"></path></g></svg>