<svg xmlns="http://www.w3.org/2000/svg" xmlns:xlink="http://www.w3.org/1999/xlink" version="1.1" x="0px" y="0px" viewBox="0 0 100 100" enable-background="new 0 0 100 100" xml:space="preserve"><g><path d="M50,89.076c-0.289,0-0.577-0.083-0.829-0.25c-0.957-0.634-1.919-1.268-2.881-1.9c-5.936-3.905-12.073-7.944-16.833-12.205   c-6.731-6.026-9.866-11.606-9.866-17.56V12.424c0-0.829,0.671-1.5,1.5-1.5h57.82c0.828,0,1.5,0.671,1.5,1.5v44.737   c0,5.952-3.135,11.532-9.865,17.56c-4.764,4.263-10.904,8.303-16.842,12.21c-0.959,0.631-1.92,1.263-2.875,1.896   C50.576,88.993,50.289,89.076,50,89.076z M22.59,13.924v43.237c0,5.039,2.817,9.908,8.867,15.325   c4.594,4.111,10.637,8.088,16.481,11.934c0.687,0.452,1.375,0.904,2.061,1.357c0.684-0.451,1.37-0.902,2.055-1.353   C57.9,80.577,63.947,76.6,68.543,72.486c6.049-5.418,8.867-10.287,8.867-15.325V13.924H22.59z"></path></g></svg>